<?xml version="1.0" standalone="no"?>
<!DOCTYPE svg PUBLIC "-//W3C//DTD SVG 20010904//EN"
 "http://www.w3.org/TR/2001/REC-SVG-20010904/DTD/svg10.dtd">
<svg version="1.0" xmlns="http://www.w3.org/2000/svg"
 width="491.000000pt" height="241.000000pt" viewBox="0 0 491.000000 241.000000"
 preserveAspectRatio="xMidYMid meet">

<g transform="translate(0.000000,241.000000) scale(0.100000,-0.100000)"
fill="#000000" stroke="none">
<path d="M1010 2289 c-657 -138 -1038 -843 -793 -1464 131 -331 393 -566 739
-662 91 -26 113 -28 279 -28 156 0 191 3 265 23 351 95 619 331 750 661 115
287 102 597 -34 876 -155 316 -424 525 -767 595 -129 27 -309 26 -439 -1z
m482 -53 c196 -50 362 -149 506 -301 190 -202 282 -434 282 -715 0 -283 -93
-516 -286 -719 -140 -148 -306 -246 -502 -298 -85 -23 -117 -26 -257 -26 -142
-1 -171 2 -260 26 -389 105 -686 415 -766 802 -21 102 -25 295 -8 391 79 443
426 787 867 859 125 21 301 13 424 -19z"/>
<path d="M1065 2166 c-242 -47 -450 -175 -595 -367 -277 -369 -256 -876 51
-1223 108 -122 307 -243 474 -288 117 -31 365 -31 480 0 109 30 269 110 357
180 408 325 483 913 168 1331 -129 171 -313 294 -525 351 -103 28 -309 36
-410 16z m420 -71 c281 -83 500 -285 601 -553 52 -139 52 -146 2 -222 -97
-147 -240 -271 -403 -350 -341 -166 -726 -136 -1039 80 -89 62 -205 180 -264
270 -49 75 -49 81 -1 215 55 151 167 306 289 400 65 50 182 116 250 141 169
61 396 69 565 19z m-1094 -877 c58 -73 146 -159 222 -213 l27 -20 -25 -140
c-48 -264 -44 -249 -67 -228 -34 30 -124 174 -153 242 -43 103 -66 208 -72
329 -3 61 -4 112 -1 112 2 0 33 -37 69 -82z m1749 -122 c-23 -155 -80 -296
-172 -421 -43 -59 -52 -66 -58 -50 -4 11 -22 98 -41 193 l-33 172 24 17 c69
48 167 143 222 215 l63 80 3 -63 c2 -35 -2 -99 -8 -143z m-311 -346 l32 -195
-43 -39 c-77 -69 -278 -174 -312 -163 -9 3 -59 465 -51 475 1 2 36 12 76 23
41 11 115 39 164 63 50 24 93 41 96 37 3 -3 20 -94 38 -201z m-1047 160 c47
-22 122 -49 166 -61 73 -20 81 -24 77 -43 -2 -12 -12 -121 -21 -244 -17 -216
-18 -222 -38 -216 -110 34 -244 107 -313 170 l-42 39 34 175 c39 196 44 220
49 220 2 0 41 -18 88 -40z m622 -140 c3 -25 13 -132 22 -238 13 -148 14 -196
5 -205 -15 -15 -375 -17 -389 -2 -6 6 -1 97 14 240 13 127 23 235 24 240 0 6
60 10 159 10 l159 0 6 -45z"/>
<path d="M619 1718 c-20 -44 -24 -69 -24 -153 0 -87 3 -107 26 -155 90 -191
315 -279 497 -195 29 13 52 28 52 32 0 9 -512 523 -521 523 -4 0 -17 -24 -30
-52z"/>
<path d="M1552 1507 l-263 -264 58 -26 c188 -84 404 -5 495 181 31 62 33 74
33 167 0 84 -4 109 -24 153 -13 28 -26 52 -30 52 -3 0 -125 -118 -269 -263z"/>
<path d="M3440 2289 c-664 -140 -1045 -857 -786 -1483 134 -323 400 -554 746
-648 74 -20 108 -23 265 -23 166 0 188 2 279 28 428 119 736 463 801 894 34
224 3 424 -96 633 -122 257 -339 456 -603 554 -178 67 -417 84 -606 45z m383
-34 c431 -65 780 -394 868 -820 25 -122 25 -309 0 -431 -50 -243 -195 -470
-401 -626 -89 -68 -245 -143 -365 -175 -89 -24 -118 -27 -260 -26 -140 0 -172
3 -257 26 -196 52 -362 150 -502 298 -192 202 -286 435 -286 716 0 238 65 442
201 623 239 319 611 474 1002 415z"/>
<path d="M3495 2166 c-242 -47 -450 -175 -595 -367 -315 -418 -240 -1006 168
-1331 89 -71 250 -151 357 -179 44 -11 128 -23 186 -26 281 -15 531 80 730
277 342 338 380 873 89 1259 -129 170 -318 297 -527 352 -101 27 -309 34 -408
15z m351 -55 c183 -38 327 -115 458 -246 277 -276 348 -677 184 -1035 -26 -57
-31 -63 -41 -47 -68 107 -99 150 -151 205 -177 189 -384 282 -626 282 -181 0
-323 -43 -470 -141 -104 -69 -208 -176 -275 -282 -57 -91 -56 -91 -105 35 -45
117 -62 208 -62 338 0 186 46 348 144 497 203 311 581 469 944 394z m-27 -906
c7 -4 11 -85 11 -238 l0 -232 -168 1 -167 2 -3 231 -2 231 22 4 c13 3 32 7 43
10 28 7 251 -1 264 -9z m-390 -476 c-6 -4 -38 -10 -70 -13 -32 -4 -81 -13
-109 -20 l-50 -13 2 200 3 200 54 30 c30 17 81 41 115 53 l61 22 3 -226 c2
-161 -1 -228 -9 -233z m611 401 c25 -12 57 -31 73 -42 l27 -19 0 -190 c0 -145
-3 -189 -12 -189 -7 0 -62 9 -123 20 -60 11 -111 20 -112 20 -2 0 -3 103 -3
229 l0 230 53 -18 c29 -10 73 -29 97 -41z m-902 -371 l-3 -91 -78 -28 -78 -28
-40 53 -40 53 30 61 c36 70 105 160 164 213 l42 38 3 -90 c1 -50 1 -131 0
-181z m1098 233 c60 -53 129 -144 165 -213 l30 -60 -22 -32 c-12 -18 -31 -41
-41 -53 l-18 -21 -85 30 -85 30 0 178 c0 99 3 179 8 179 4 0 26 -17 48 -38z
m-436 -302 c69 -5 163 -17 210 -25 107 -20 300 -75 300 -86 0 -5 -30 -33 -67
-64 -278 -229 -675 -269 -1003 -99 -92 47 -224 149 -215 164 18 29 311 95 485
109 147 12 151 12 290 1z"/>
<path d="M3196 1581 c-293 -293 -284 -276 -164 -312 177 -54 363 27 452 196
29 56 31 67 31 165 0 89 -4 113 -24 158 -13 28 -26 52 -30 52 -3 0 -123 -117
-265 -259z"/>
<path d="M3839 1788 c-20 -45 -24 -69 -24 -158 0 -96 2 -110 29 -163 85 -168
277 -252 453 -198 121 36 130 19 -163 312 -142 142 -262 259 -265 259 -4 0
-17 -24 -30 -52z"/>
</g>
</svg>
