<?xml version="1.0" standalone="no"?>
<!DOCTYPE svg PUBLIC "-//W3C//DTD SVG 20010904//EN"
 "http://www.w3.org/TR/2001/REC-SVG-20010904/DTD/svg10.dtd">
<svg version="1.0" xmlns="http://www.w3.org/2000/svg"
 width="246.000000pt" height="244.000000pt" viewBox="0 0 246.000000 244.000000"
 preserveAspectRatio="xMidYMid meet">

<g transform="translate(0.000000,244.000000) scale(0.100000,-0.100000)"
fill="#000000" stroke="none">
<path d="M1097 2423 c-32 -11 -60 -30 -80 -53 l-31 -37 -55 26 c-81 37 -175
36 -253 -2 -72 -35 -100 -74 -106 -143 -10 -124 83 -231 194 -222 l44 3 0 -92
c0 -83 -2 -92 -20 -98 -11 -4 -40 -21 -63 -39 l-43 -33 -199 169 c-110 93
-261 216 -335 274 l-135 105 -8 -38 c-10 -47 7 -198 34 -294 51 -185 188 -359
377 -481 l63 -41 -8 -56 c-12 -87 -7 -219 11 -290 17 -62 59 -156 89 -195 13
-18 9 -24 -52 -79 -36 -33 -155 -134 -263 -224 -109 -90 -198 -167 -198 -171
1 -4 30 -38 65 -76 l64 -69 23 19 c13 11 133 111 267 224 133 113 246 206 251
208 5 2 33 -13 64 -34 54 -35 55 -37 42 -63 -8 -14 -24 -59 -36 -99 -29 -96
-25 -231 9 -307 79 -177 329 -262 544 -183 112 40 206 159 225 283 12 77 4
190 -19 277 -12 43 -20 80 -18 82 2 1 20 12 38 23 l35 22 75 -63 c42 -34 165
-135 275 -224 l198 -162 49 67 c27 36 49 69 49 73 0 3 -114 105 -254 225
l-255 218 23 31 c71 94 118 237 118 361 0 111 -21 197 -72 292 l-39 72 34 25
34 26 42 -21 c51 -27 120 -35 176 -20 88 24 291 185 352 279 19 31 31 62 31
83 0 40 -7 52 -38 68 -35 19 -95 -14 -201 -110 -97 -89 -171 -140 -171 -119 0
14 41 53 170 162 52 44 105 97 117 117 19 31 20 40 10 71 -10 28 -19 37 -48
44 -50 12 -84 -6 -209 -115 -102 -88 -163 -129 -176 -117 -11 12 10 35 101
110 50 41 108 95 128 119 32 37 37 50 35 84 -2 31 -9 43 -29 54 -39 22 -88 3
-184 -69 -248 -188 -304 -277 -258 -410 l20 -56 -44 -34 c-31 -23 -49 -31 -58
-24 -7 5 -38 26 -69 47 l-57 37 2 93 1 92 64 0 c53 0 69 5 105 30 60 42 82 84
82 157 0 49 -5 66 -29 100 -16 22 -45 50 -64 60 -47 26 -130 19 -200 -16 -60
-30 -60 -30 -60 -12 0 22 -65 74 -107 85 -54 15 -130 12 -186 -6z m201 -52
c47 -24 82 -65 82 -95 0 -20 1 -19 23 6 35 42 85 62 152 62 104 -1 164 -58
152 -147 -7 -53 -33 -87 -88 -115 -36 -19 -55 -23 -101 -19 -69 6 -68 7 -70
-117 -1 -84 -2 -87 -22 -81 -99 29 -168 37 -276 31 -100 -4 -227 -27 -282 -51
-17 -7 -18 2 -18 94 l0 102 -49 -7 c-96 -12 -180 53 -188 145 -6 64 20 110 77
139 64 33 172 27 250 -14 30 -16 58 -30 62 -32 4 -2 14 12 22 32 35 85 173
119 274 67z m830 -53 c30 -30 5 -61 -155 -192 -122 -100 -144 -134 -107 -170
36 -37 87 -11 264 136 75 63 113 88 132 88 30 0 52 -28 42 -54 -3 -9 -56 -58
-118 -109 -134 -114 -175 -154 -183 -184 -12 -51 45 -69 103 -34 17 10 77 60
134 110 111 98 145 116 166 86 20 -28 -5 -67 -115 -176 -170 -169 -307 -210
-411 -122 -33 28 -31 28 -103 -29 l-27 -22 -38 38 -37 37 48 43 47 42 -15 37
c-21 51 -23 154 -2 192 39 74 302 291 358 295 3 0 10 -5 17 -12z m-1990 -190
c42 -34 174 -143 292 -242 118 -99 216 -181 218 -182 2 -1 -18 -31 -43 -66
-26 -34 -58 -84 -71 -110 -13 -27 -27 -48 -30 -48 -17 0 -116 65 -177 115
-159 132 -254 315 -274 532 -3 35 -3 63 1 63 4 0 42 -28 84 -62z m1206 -288
c294 -75 506 -318 506 -581 0 -109 -15 -170 -66 -275 -80 -163 -217 -275 -414
-335 -100 -30 -259 -30 -373 0 -230 61 -409 228 -471 440 -21 70 -21 218 -1
296 65 248 261 419 532 465 90 15 206 11 287 -10z m-693 -1128 c-25 -24 -139
-122 -252 -217 l-206 -174 -43 45 c-24 24 -42 45 -39 47 2 2 81 65 174 140 94
75 206 167 250 206 l80 69 41 -36 42 -37 -47 -43z m1320 -93 c129 -111 237
-204 242 -208 4 -4 -6 -26 -23 -50 -31 -42 -31 -42 -54 -24 -35 27 -459 374
-476 389 -12 12 -9 19 25 54 21 22 42 40 45 40 4 0 112 -90 241 -201z m-463
-20 l10 -40 -54 -27 c-29 -14 -55 -24 -57 -21 -3 2 -7 24 -11 49 l-7 46 43 16
c61 23 64 23 76 -23z m-539 10 c14 -6 21 -15 18 -23 -3 -8 -9 -31 -13 -50 -3
-20 -8 -36 -11 -36 -4 0 -105 41 -111 46 -2 1 5 20 14 43 16 40 18 42 48 35
17 -3 42 -11 55 -15z m199 -29 c1 0 2 -25 2 -55 l0 -55 -37 0 c-60 0 -114 12
-120 25 -2 7 1 32 7 55 l11 42 67 -6 c37 -3 68 -6 70 -6z m182 -2 c0 -7 3 -30
6 -50 6 -35 5 -37 -32 -47 -22 -6 -56 -11 -76 -11 l-38 0 0 54 c0 54 0 55 33
59 71 9 107 7 107 -5z m189 -135 c1 -18 -11 -29 -59 -53 l-60 -30 -1 40 c-1
22 -2 44 -3 50 -1 5 24 22 54 37 l55 28 6 -25 c4 -14 7 -35 8 -47z m-622 30
l42 -15 -6 -46 c-3 -26 -6 -48 -7 -49 -1 0 -29 10 -63 24 -61 24 -62 26 -57
56 9 54 13 60 32 52 9 -4 36 -14 59 -22z m179 -41 l68 -7 2 -53 2 -54 -52 7
c-28 4 -68 11 -90 17 -37 9 -38 10 -32 46 3 20 6 42 6 49 0 7 6 10 14 7 8 -3
45 -9 82 -12z m278 -13 c14 -74 13 -76 -69 -88 -42 -6 -80 -11 -85 -11 -6 0
-10 25 -10 55 l0 55 43 1 c23 1 56 5 72 9 17 4 33 8 36 9 4 0 9 -13 13 -30z
m-349 -120 c189 -39 334 -20 519 69 15 8 -4 -80 -31 -140 -32 -71 -110 -147
-178 -174 -67 -25 -209 -26 -281 -1 -67 23 -135 69 -169 113 -26 35 -56 108
-70 171 l-6 32 63 -26 c35 -14 104 -34 153 -44z"/>
<path d="M790 1687 c-70 -37 -100 -120 -66 -186 21 -39 92 -102 164 -144 69
-41 196 -97 218 -97 37 0 3 24 -108 79 -174 83 -248 153 -248 233 0 43 24 76
66 94 29 12 39 12 69 -1 43 -18 73 -75 57 -110 -12 -27 -55 -37 -79 -19 -15
11 -16 16 -5 33 17 29 15 41 -7 41 -21 0 -31 -19 -31 -60 0 -59 89 -82 135
-35 51 50 23 160 -47 184 -46 16 -70 14 -118 -12z"/>
<path d="M809 1232 c-62 -32 -107 -95 -116 -160 -8 -59 20 -134 66 -175 49
-45 99 -60 172 -55 75 5 133 44 165 108 59 117 22 234 -90 286 -70 33 -129 31
-197 -4z"/>
<path d="M1387 1246 c-145 -54 -192 -221 -94 -333 87 -99 256 -97 333 4 77
102 55 244 -49 310 -49 31 -135 40 -190 19z"/>
<path d="M1164 850 c-29 -11 -37 -37 -21 -68 17 -36 59 -41 81 -10 22 31 20
54 -6 72 -25 18 -25 18 -54 6z"/>
</g>
</svg>
