<?xml version="1.0" standalone="no"?>
<!DOCTYPE svg PUBLIC "-//W3C//DTD SVG 20010904//EN"
 "http://www.w3.org/TR/2001/REC-SVG-20010904/DTD/svg10.dtd">
<svg version="1.0" xmlns="http://www.w3.org/2000/svg"
 width="1007.000000pt" height="1077.000000pt" viewBox="0 0 1007.000000 1077.000000"
 preserveAspectRatio="xMidYMid meet">

<g transform="translate(0.000000,1077.000000) scale(0.100000,-0.100000)"
fill="#000000" stroke="none">
<path d="M5009 10676 c-164 -143 -321 -337 -450 -556 -34 -58 -63 -106 -64
-108 -1 -1 -80 -14 -176 -28 -447 -65 -874 -186 -1283 -363 -77 -34 -140 -60
-142 -58 -1 1 -9 45 -18 97 -22 128 -36 283 -36 392 0 126 -32 178 -110 178
-31 0 -44 -10 -110 -78 -300 -310 -531 -729 -614 -1112 -3 -16 -32 -46 -78
-82 -40 -31 -101 -81 -136 -111 l-63 -53 -72 13 c-94 16 -157 16 -240 -2 -90
-19 -159 -58 -216 -122 -93 -105 -141 -238 -166 -468 -15 -137 -32 -191 -58
-182 -11 3 -90 91 -167 185 -34 42 -38 44 -110 53 -41 5 -77 6 -81 1 -8 -8
-29 -247 -29 -332 l0 -56 -62 -30 c-102 -48 -176 -102 -202 -147 -58 -100 -74
-450 -27 -582 12 -33 39 -84 61 -113 l40 -53 -45 -114 c-516 -1304 -449 -2798
181 -4056 158 -317 368 -646 566 -889 20 -25 28 -46 28 -73 0 -65 31 -250 47
-285 37 -79 161 -152 405 -241 127 -46 144 -56 220 -121 l83 -70 17 -132 c9
-73 28 -170 42 -215 33 -102 111 -222 175 -268 141 -103 397 -105 595 -5 l77
38 107 -50 c1363 -641 2947 -636 4308 12 l142 67 43 -30 c105 -71 237 -110
379 -110 206 0 330 75 421 254 42 85 67 186 84 345 8 77 17 148 20 156 8 20
83 53 265 118 252 89 394 171 434 249 22 41 46 219 46 334 l0 106 60 80 c213
283 435 677 587 1040 481 1152 509 2476 77 3639 -36 98 -68 184 -71 193 -3 11
12 33 41 62 90 91 130 210 129 387 -1 124 -25 295 -47 338 -21 40 -72 85 -146
130 l-65 39 -6 154 c-3 85 -9 169 -13 187 -8 33 -8 33 -54 27 -121 -16 -112
-11 -182 -101 -36 -47 -76 -96 -90 -109 l-25 -24 -52 23 c-28 14 -56 33 -62
44 -5 10 -15 68 -21 128 -15 155 -27 215 -61 308 -52 142 -144 246 -256 290
-75 29 -266 33 -363 8 -83 -22 -80 -23 -149 41 -35 33 -38 40 -45 108 -17 190
-98 453 -204 668 -109 222 -306 497 -460 644 -68 64 -110 74 -150 37 -43 -41
-49 -68 -55 -250 -3 -96 -13 -218 -21 -270 -21 -122 -58 -280 -66 -280 -4 0
-54 22 -112 50 -382 180 -902 340 -1298 400 -41 6 -84 13 -95 15 -12 3 -30 23
-43 50 -73 151 -231 373 -359 506 -71 74 -227 208 -251 216 -4 2 -50 -35 -103
-81z m407 -426 c255 -355 446 -842 554 -1419 31 -170 64 -400 76 -539 l7 -84
-29 15 c-47 24 -230 86 -333 112 -129 32 -257 53 -366 60 -162 11 -155 7 -155
70 l0 55 52 -20 c28 -11 53 -18 55 -17 1 2 -22 22 -52 46 -50 38 -55 46 -55
82 0 21 3 39 6 39 3 0 45 -21 92 -46 l87 -46 -92 89 -92 88 -6 289 -6 289 83
-65 c223 -173 427 -328 433 -328 3 0 -111 116 -255 258 l-261 257 -5 555 -6
555 104 -105 c57 -58 131 -143 164 -190z m-363 -346 l4 -431 -273 -238 c-151
-131 -274 -240 -274 -242 0 -6 8 -1 282 184 141 95 259 173 262 173 3 0 6 -48
6 -107 l0 -108 -316 -240 c-173 -132 -325 -248 -337 -258 l-22 -18 22 10 c11
6 163 96 336 200 l315 189 7 -108 c4 -60 4 -113 1 -119 -4 -5 -86 -69 -184
-142 -97 -72 -181 -136 -187 -142 -9 -9 106 50 293 150 l82 45 0 -51 0 -50
-80 -57 c-44 -32 -78 -59 -76 -61 1 -2 37 12 79 32 l77 34 0 -68 c0 -79 -2
-81 -88 -81 -184 -1 -500 -71 -716 -159 l-94 -39 5 57 c50 580 190 1137 393
1568 102 216 256 448 401 607 l64 70 7 -85 c3 -46 8 -278 11 -515z m2481 28
c130 -685 -135 -1431 -728 -2049 l-103 -108 -79 69 c-92 81 -191 155 -286 215
-38 24 -68 45 -68 47 0 2 26 17 58 33 153 78 377 245 527 396 348 347 580 831
635 1320 14 125 20 168 25 164 2 -2 10 -41 19 -87z m-4799 -326 c120 -642 490
-1179 1043 -1517 l93 -57 -37 -23 c-62 -38 -184 -139 -276 -227 l-87 -84 -82
87 c-228 240 -389 470 -520 740 -84 172 -121 271 -164 440 -79 308 -85 627
-19 935 7 28 10 12 20 -85 7 -66 20 -160 29 -209z m923 -255 c131 -67 162
-235 63 -338 -67 -70 -189 -83 -269 -30 -142 94 -119 313 39 376 42 17 127 12
167 -8z m2995 -12 c47 -13 102 -60 128 -110 26 -51 25 -137 -1 -188 -81 -160
-316 -153 -385 11 -68 165 85 335 258 287z m-2563 -554 c0 -3 -7 -47 -15 -98
-19 -123 -43 -329 -51 -454 -4 -57 -10 -103 -13 -103 -13 0 -186 103 -251 148
-81 57 -185 142 -270 220 l-65 60 65 30 c92 42 299 116 453 162 140 41 147 43
147 35z m4681 -47 c72 -33 132 -95 174 -183 45 -90 61 -158 80 -329 18 -170
31 -200 100 -235 28 -14 52 -27 54 -29 8 -5 -141 -151 -234 -229 -401 -339
-810 -519 -1290 -567 l-60 -6 105 103 c58 56 176 171 263 254 l158 150 6 224
c5 206 7 232 33 324 35 124 55 222 70 345 6 52 16 100 21 107 18 21 110 62
189 83 107 29 253 24 331 -12z m-7076 -15 c84 -20 177 -68 230 -118 40 -37 45
-46 45 -84 0 -24 6 -89 14 -145 9 -60 16 -228 20 -416 l5 -314 93 -91 c51 -50
156 -151 233 -224 l139 -134 -58 7 c-154 20 -386 90 -578 176 -258 115 -568
336 -773 549 l-40 42 21 17 c36 28 43 55 60 202 26 240 69 362 161 456 92 95
245 122 428 77z m4570 -14 c119 -38 308 -110 361 -137 l37 -19 -78 -63 c-95
-75 -225 -163 -317 -214 -59 -33 -68 -35 -68 -19 0 31 -30 284 -46 378 -17
110 -17 115 -1 110 6 -2 57 -18 112 -36z m-790 -408 c878 -147 1538 -752 1712
-1571 25 -113 27 -145 27 -345 1 -248 -11 -338 -71 -534 -184 -611 -681 -1105
-1322 -1314 -240 -79 -437 -110 -696 -110 -272 0 -455 30 -708 113 -738 245
-1264 849 -1372 1576 -20 137 -21 395 0 526 84 555 420 1051 918 1360 264 165
619 285 937 317 143 15 434 5 575 -18z m-4481 -506 c451 -447 981 -704 1554
-756 l134 -12 148 -150 149 -150 -15 -106 c-7 -58 -14 -129 -14 -158 l0 -51
-128 33 c-476 123 -883 329 -1272 644 -136 110 -362 336 -474 476 -99 124
-253 350 -292 428 l-26 52 58 -65 c31 -36 111 -119 178 -185z m8416 168 c-55
-99 -194 -303 -281 -413 -107 -135 -384 -414 -518 -519 -354 -281 -739 -475
-1180 -597 -68 -19 -125 -33 -126 -31 -1 1 -7 61 -14 132 -6 72 -20 173 -31
225 l-20 95 82 77 83 78 91 0 c668 1 1358 343 1857 918 44 50 82 92 84 92 3 0
-9 -26 -27 -57z m-8808 -264 c16 -207 71 -481 137 -677 16 -48 27 -89 24 -92
-2 -3 -39 -5 -81 -5 -87 0 -160 27 -225 84 -45 40 -93 136 -108 216 -13 69 -5
250 15 365 12 67 18 78 54 110 44 40 151 101 167 96 6 -1 13 -45 17 -97z
m9127 15 c38 -43 56 -155 56 -344 -1 -128 -3 -152 -24 -205 -44 -113 -152
-195 -286 -221 -35 -6 -38 -5 -31 12 72 187 156 613 156 792 l0 53 51 -27 c28
-16 63 -42 78 -60z m-7481 -86 c22 -40 68 -116 102 -168 l63 -95 -89 82 c-49
45 -111 104 -139 132 l-49 51 34 35 c19 19 35 35 36 35 1 0 20 -33 42 -72z
m5690 -33 c-13 -12 -58 -54 -100 -94 l-77 -73 77 115 77 116 23 -22 23 -21
-23 -21z m-7107 -1177 c56 -16 114 -70 134 -123 62 -161 -76 -323 -243 -285
-95 21 -162 102 -164 198 -2 66 16 112 61 156 61 60 133 78 212 54z m8570 -99
c177 -54 203 -305 39 -389 -54 -27 -96 -33 -149 -20 -97 23 -161 105 -161 205
0 146 132 245 271 204z m-7819 -510 c216 -174 508 -337 732 -409 37 -12 38
-13 32 -49 -33 -195 -40 -290 -39 -521 1 -156 6 -281 16 -345 8 -55 13 -102
11 -104 -15 -17 -297 -81 -309 -69 -3 3 -1 17 5 32 18 47 12 170 -11 230 -27
72 -93 144 -171 187 -59 32 -69 34 -158 34 -82 0 -103 -4 -152 -27 -73 -34
-142 -103 -176 -176 -23 -49 -27 -70 -27 -147 0 -76 4 -99 26 -146 58 -123
166 -199 298 -207 70 -5 79 -8 121 -44 184 -158 486 -326 730 -407 64 -21 67
-23 94 -79 79 -162 221 -379 350 -533 l69 -83 -25 -20 c-14 -12 -106 -89 -204
-171 -334 -280 -579 -455 -637 -455 -23 0 -225 241 -339 405 -59 85 -277 455
-333 565 -128 253 -254 630 -314 940 -58 297 -75 515 -68 858 8 366 52 665
143 980 l16 53 109 -105 c60 -57 155 -142 211 -187z m7302 41 c65 -291 86
-465 93 -782 11 -511 -49 -910 -206 -1368 -77 -227 -131 -344 -294 -635 -182
-324 -284 -471 -490 -708 l-33 -38 -104 70 c-123 82 -254 183 -477 369 l-162
135 52 59 c151 172 298 387 398 581 l64 125 70 27 c172 66 422 213 584 343 53
42 86 62 115 66 57 10 150 62 192 109 20 22 48 65 63 96 22 47 26 70 26 146 0
77 -4 98 -27 147 -34 73 -103 142 -176 176 -49 23 -70 27 -152 27 -89 0 -99
-2 -158 -34 -125 -68 -193 -179 -193 -316 0 -39 5 -83 10 -99 6 -15 11 -29 11
-31 0 -5 -135 27 -143 35 -4 4 0 61 9 126 28 187 25 561 -5 764 -13 85 -24
159 -25 163 0 4 51 29 114 56 278 116 541 282 731 459 46 43 76 66 80 58 4 -6
18 -63 33 -126z m-7874 -875 l0 -195 -455 0 -455 0 0 195 0 195 455 0 455 0 0
-195z m8960 0 l0 -195 -455 0 -455 0 0 195 0 195 455 0 455 0 0 -195z m-6407
-11 c112 -105 268 -224 382 -290 46 -27 84 -52 85 -56 0 -11 -235 -127 -386
-191 -129 -54 -383 -141 -502 -172 -301 -77 -651 -115 -908 -100 l-129 8 75
17 c159 36 328 100 470 178 100 54 276 173 370 249 107 85 311 283 386 374 32
38 60 69 62 69 2 0 45 -39 95 -86z m3354 -132 c314 -314 633 -522 943 -616
206 -61 213 -56 -70 -52 -271 5 -380 17 -626 72 -241 53 -582 178 -827 300
-156 79 -153 66 -34 137 124 75 225 150 343 256 49 44 90 81 91 81 1 0 82 -80
180 -178z m-5112 -136 c56 -26 119 -90 143 -145 21 -49 20 -165 -1 -215 l-17
-39 -123 7 c-67 4 -139 9 -161 12 l-38 6 7 -43 c4 -24 13 -59 21 -76 12 -30
11 -33 -4 -33 -31 0 -116 47 -149 81 -50 53 -73 113 -73 195 0 115 59 207 164
255 61 28 167 25 231 -5z m6731 5 c185 -84 224 -330 73 -465 -37 -34 -59 -45
-59 -28 0 4 7 31 14 61 l15 53 -47 -7 c-79 -12 -224 -21 -290 -17 -63 4 -64 5
-80 40 -20 48 -20 165 0 213 24 55 87 119 143 145 64 30 170 33 231 5z m-3386
-458 c30 -36 96 -102 147 -146 271 -237 584 -401 946 -497 68 -18 114 -36 125
-48 21 -25 228 -213 467 -427 518 -463 907 -774 1080 -864 76 -40 192 -65 265
-57 30 3 109 24 174 46 143 49 270 71 328 59 55 -13 132 -53 177 -94 68 -62
111 -188 111 -326 0 -90 -28 -285 -45 -319 -31 -60 -167 -132 -416 -220 -188
-66 -248 -97 -272 -137 -12 -22 -23 -74 -32 -165 -26 -240 -64 -352 -155 -451
-67 -74 -127 -99 -247 -105 -160 -8 -329 48 -421 138 -78 74 -75 54 -76 526
-1 407 -2 423 -21 444 -24 27 -2145 1996 -2191 2033 l-31 26 -1095 -1034
-1095 -1034 -8 -249 c-4 -137 -4 -326 0 -420 l7 -170 -28 -52 c-71 -130 -265
-216 -468 -208 -125 5 -186 29 -250 98 -89 95 -136 226 -156 436 -22 229 -8
215 -320 329 -259 94 -375 155 -404 213 -30 60 -53 318 -37 422 27 172 115
274 271 315 65 17 188 -3 340 -56 63 -21 138 -42 166 -45 80 -10 206 20 289
67 241 137 713 531 1497 1248 36 34 72 61 80 61 7 0 69 16 137 35 291 84 565
221 792 397 90 69 299 272 299 289 0 19 17 5 70 -58z m4335 -207 c91 -49 133
-181 87 -273 -67 -131 -232 -163 -335 -65 -104 98 -84 276 38 340 70 36 141
36 210 -2z m-8627 -52 c137 -57 175 -231 74 -337 -61 -64 -159 -85 -240 -52
-172 72 -167 324 8 394 38 15 116 13 158 -5z m8167 -1031 c204 -113 375 -211
382 -217 9 -8 -10 -51 -81 -176 -51 -91 -96 -164 -100 -163 -4 0 -183 99 -397
219 -302 169 -388 221 -384 233 3 9 45 85 92 169 67 120 89 152 102 147 9 -3
183 -99 386 -212z m-7445 -6 c51 -87 91 -159 89 -161 -14 -11 -771 -416 -777
-416 -13 0 -194 322 -185 330 21 21 768 419 774 412 4 -4 49 -78 99 -165z
m2308 -656 c265 -133 535 -216 872 -268 145 -22 584 -25 730 -5 307 44 593
126 842 244 l87 41 49 -44 c148 -134 662 -615 662 -620 0 -11 -174 -109 -332
-189 -413 -206 -839 -332 -1328 -392 -141 -17 -719 -17 -860 0 -554 68 -1045
226 -1503 484 l-109 61 44 43 c109 108 734 694 741 694 4 0 51 -22 105 -49z
m1402 -1771 l0 -440 -192 2 -193 3 -3 438 -2 437 195 0 195 0 0 -440z m-1333
355 c136 -63 161 -244 47 -344 -108 -95 -265 -66 -328 61 -44 89 -31 174 39
244 68 68 152 82 242 39z m2382 -1 c90 -45 134 -140 110 -238 -18 -73 -87
-140 -160 -155 -102 -20 -193 23 -235 112 -88 189 99 373 285 281z"/>
<path d="M6077 7816 c-59 -16 -114 -59 -141 -112 -25 -48 -33 -164 -16 -232
28 -113 118 -251 233 -359 82 -77 137 -115 230 -159 286 -136 527 -30 504 222
-25 264 -317 570 -610 639 -75 18 -136 18 -200 1z m169 -47 c85 -15 227 -86
315 -157 98 -79 170 -166 220 -267 90 -182 74 -315 -46 -375 -207 -102 -591
125 -737 435 -63 137 -47 283 39 336 61 38 115 45 209 28z"/>
<path d="M6178 7674 c-55 -23 -83 -86 -74 -167 15 -150 166 -351 321 -428 59
-29 80 -34 138 -34 66 0 70 1 103 37 31 35 34 43 34 103 0 123 -68 255 -191
369 -116 108 -248 156 -331 120z"/>
<path d="M3973 7809 c-125 -21 -276 -100 -391 -204 -295 -268 -340 -635 -86
-711 299 -90 782 289 811 636 7 87 -9 147 -53 199 -60 70 -165 100 -281 80z
m174 -64 c50 -21 72 -42 94 -90 82 -177 -112 -497 -392 -648 -97 -53 -163 -71
-254 -71 -87 0 -121 12 -167 61 -36 38 -48 73 -48 141 1 223 258 516 528 603
72 23 190 24 239 4z"/>
<path d="M3875 7653 c-68 -28 -142 -82 -208 -153 -144 -156 -196 -345 -118
-433 25 -28 36 -31 95 -35 61 -4 74 -1 139 31 177 88 327 293 331 452 1 68
-23 121 -65 142 -34 18 -126 15 -174 -4z"/>
<path d="M4875 7544 c-744 -130 -1172 -835 -881 -1450 24 -51 59 -114 77 -140
175 -255 472 -441 794 -499 119 -21 351 -21 470 0 531 95 924 498 961 985 39
521 -389 1006 -975 1104 -116 20 -335 20 -446 0z m-12 -91 c-24 -31 -28 -46
-28 -99 0 -54 4 -67 31 -101 35 -44 112 -89 167 -98 l37 -7 0 -419 0 -420
-112 6 c-483 26 -838 117 -964 246 l-38 39 16 78 c59 289 270 552 556 696 121
61 277 114 340 115 l23 1 -28 -37z m630 -4 c178 -58 323 -145 455 -273 136
-132 227 -287 273 -464 l19 -75 -26 -34 c-117 -154 -480 -260 -986 -288 l-108
-6 0 421 0 420 23 0 c85 0 204 77 227 146 18 53 7 118 -25 160 l-28 36 44 -7
c24 -4 84 -20 132 -36z m757 -937 c0 -123 -44 -310 -98 -417 -125 -249 -362
-448 -647 -543 -126 -42 -257 -62 -405 -62 -612 0 -1096 403 -1145 953 -4 42
-4 77 0 77 4 0 21 -12 38 -26 68 -57 238 -124 412 -163 476 -105 1135 -86
1525 45 96 33 217 96 267 139 21 19 41 34 46 35 4 0 7 -17 7 -38z"/>
<path d="M2118 3357 c-103 -39 -172 -102 -217 -197 -22 -46 -26 -69 -26 -145
0 -82 3 -97 33 -157 38 -77 92 -130 171 -167 48 -22 69 -26 151 -26 87 0 100
3 156 32 124 65 194 179 194 318 0 99 -27 169 -91 240 -72 78 -139 108 -248
112 -55 2 -99 -2 -123 -10z m224 -89 c54 -23 122 -91 146 -146 9 -22 15 -65
15 -107 0 -84 -16 -127 -72 -188 -132 -143 -368 -109 -455 65 -33 65 -36 171
-7 234 67 146 223 206 373 142z"/>
<path d="M7793 3356 c-92 -30 -176 -106 -220 -201 -39 -86 -39 -194 1 -282 34
-74 113 -154 183 -185 146 -65 335 -14 429 113 135 184 70 442 -134 537 -68
32 -191 40 -259 18z m234 -92 c138 -66 193 -232 122 -372 -49 -100 -131 -152
-237 -154 -136 -2 -249 80 -283 206 -33 123 31 264 149 325 67 36 167 33 249
-5z"/>
<path d="M3813 2111 c-64 -23 -98 -47 -146 -100 -134 -149 -122 -362 27 -499
77 -70 146 -95 251 -90 143 6 252 78 314 208 22 46 26 69 26 145 0 79 -3 97
-29 149 -38 77 -102 141 -174 174 -77 35 -194 41 -269 13z m259 -94 c149 -87
184 -294 72 -425 -104 -121 -296 -129 -409 -17 -137 138 -97 367 80 452 43 21
61 24 131 20 65 -3 90 -8 126 -30z"/>
<path d="M6150 2121 c-161 -53 -262 -187 -262 -346 0 -136 79 -262 200 -322
51 -25 68 -28 157 -28 95 0 103 2 163 34 75 41 125 94 161 170 22 47 26 70 26
146 0 77 -4 98 -27 147 -58 125 -173 200 -313 205 -44 1 -91 -1 -105 -6z m205
-90 c103 -47 156 -125 163 -241 5 -90 -13 -142 -72 -208 -75 -82 -219 -112
-317 -64 -173 84 -221 296 -97 437 58 66 123 95 213 95 46 0 84 -7 110 -19z"/>
</g>
</svg>
