<?xml version="1.0" standalone="no"?>
<!DOCTYPE svg PUBLIC "-//W3C//DTD SVG 20010904//EN"
 "http://www.w3.org/TR/2001/REC-SVG-20010904/DTD/svg10.dtd">
<svg version="1.0" xmlns="http://www.w3.org/2000/svg"
 width="256.000000pt" height="256.000000pt" viewBox="0 0 256.000000 256.000000"
 preserveAspectRatio="xMidYMid meet">

<g transform="translate(0.000000,256.000000) scale(0.100000,-0.100000)"
fill="#000000" stroke="none">
<path d="M219 2540 c-39 -20 -64 -52 -75 -94 -3 -14 -11 -26 -16 -26 -54 0
-128 -86 -128 -149 0 -99 103 -159 197 -114 l35 16 185 -186 186 -185 -20 -34
c-11 -18 -30 -58 -42 -88 l-21 -55 -128 -24 c-146 -29 -257 -77 -282 -123 -13
-25 -13 -31 0 -55 29 -51 113 -87 302 -128 l76 -17 12 -66 c20 -116 76 -238
164 -357 15 -20 5 -31 -208 -244 l-224 -224 -35 16 c-94 45 -197 -15 -197
-114 0 -63 74 -149 128 -149 5 0 13 -12 16 -26 24 -96 141 -143 222 -89 51 33
68 117 35 171 l-19 31 233 233 233 233 30 -18 30 -18 -15 -41 c-18 -49 -30
-220 -16 -238 5 -7 15 -32 22 -54 19 -59 91 -150 153 -194 126 -89 272 -100
414 -30 99 48 203 177 217 268 2 12 6 25 10 28 18 18 0 180 -27 244 -4 10 4
21 23 31 l29 17 227 -228 228 -228 -16 -35 c-45 -94 15 -197 114 -197 63 0
149 74 149 128 0 5 12 13 26 16 61 16 114 81 114 141 0 102 -111 168 -196 116
l-31 -19 -223 223 -223 223 47 65 c63 89 111 195 132 297 10 47 19 86 20 88 1
2 49 14 106 27 126 29 190 54 234 89 96 77 -20 163 -283 213 -51 9 -93 21 -93
26 0 5 -18 48 -40 95 l-41 86 182 182 182 182 31 -19 c85 -52 196 14 196 116
0 60 -53 125 -114 141 -14 3 -26 11 -26 16 0 54 -86 128 -149 128 -99 0 -159
-103 -114 -197 l16 -35 -173 -173 -174 -174 -50 41 c-69 54 -195 114 -296 139
-71 18 -104 20 -224 17 -127 -4 -150 -8 -228 -37 -89 -32 -169 -75 -246 -133
l-43 -32 -178 178 -179 179 20 34 c37 62 9 151 -57 179 -46 19 -83 17 -126 -6z
m131 -37 c44 -40 49 -87 15 -137 l-27 -39 188 -188 187 -187 -44 -56 c-24 -31
-46 -56 -49 -56 -3 0 -88 83 -190 185 -102 102 -192 185 -201 185 -9 0 -22 -7
-29 -15 -18 -22 -76 -29 -111 -15 -62 26 -76 121 -25 169 13 13 41 29 62 36
31 10 40 19 45 45 18 87 118 127 179 73z m1997 -6 c13 -13 30 -41 38 -63 11
-32 19 -40 45 -45 47 -10 90 -57 97 -106 4 -34 1 -45 -23 -72 -41 -45 -87 -51
-138 -16 l-39 27 -188 -188 -187 -187 -51 54 -50 54 180 180 c98 99 179 187
179 196 0 9 -7 22 -15 29 -21 18 -29 76 -15 111 26 61 117 76 167 26z m-847
-377 c147 -42 273 -123 373 -240 43 -49 116 -164 117 -182 0 -4 -19 0 -42 8
-148 52 -549 83 -850 66 -197 -12 -416 -43 -477 -68 -18 -8 -35 -14 -37 -14
-10 0 48 100 90 157 76 104 221 211 346 257 139 51 335 58 480 16z m125 -490
c391 -25 689 -83 779 -152 26 -20 14 -50 -32 -75 -34 -20 -173 -63 -249 -78
l-33 -7 0 64 c0 84 -14 102 -98 127 -145 43 -358 62 -705 62 -365 0 -602 -23
-733 -72 -30 -11 -59 -29 -64 -39 -6 -10 -10 -46 -10 -79 0 -34 -4 -61 -9 -61
-21 0 -218 54 -255 70 -56 24 -83 55 -66 75 59 71 365 137 762 164 180 12 530
12 713 1z m115 -110 c128 -15 268 -46 298 -66 25 -16 25 -18 19 -118 -19 -316
-203 -576 -488 -689 -100 -40 -163 -51 -284 -51 -136 1 -220 20 -340 79 -237
116 -387 330 -425 604 -6 45 -8 102 -4 128 6 39 11 47 41 59 45 19 242 52 378
63 142 12 682 6 805 -9z m-930 -807 c2 -2 -103 -111 -234 -242 l-238 -238 27
-39 c35 -51 29 -97 -16 -138 -27 -24 -38 -27 -72 -23 -49 7 -96 50 -106 97 -5
26 -13 34 -45 45 -21 7 -49 23 -62 36 -51 48 -37 143 25 169 35 14 93 7 111
-15 7 -8 20 -15 29 -15 9 0 119 103 246 230 l229 229 50 -46 c28 -26 53 -48
56 -50z m1286 -144 l231 -231 39 27 c51 35 97 29 138 -16 24 -27 27 -38 23
-72 -7 -49 -50 -96 -97 -106 -26 -5 -34 -13 -45 -45 -7 -21 -23 -49 -36 -62
-48 -51 -143 -37 -169 25 -14 35 -7 93 15 111 8 7 15 20 15 29 0 9 -103 119
-230 246 l-229 229 52 48 c29 26 54 47 57 48 3 0 109 -104 236 -231z m-1028
21 c15 0 14 -24 -1 -68 l-12 -33 -47 30 c-47 30 -84 82 -74 106 4 10 17 8 63
-11 32 -13 64 -24 71 -24z m557 -4 c-15 -31 -93 -96 -116 -96 -11 0 -32 68
-26 84 3 6 25 18 48 25 24 7 55 19 69 26 35 19 45 3 25 -39z m-365 -84 l0 -55
-57 6 c-32 4 -72 11 -90 17 l-32 11 14 40 c8 22 17 43 19 47 3 5 36 3 75 -2
l71 -10 0 -54z m-236 -23 c24 -11 24 -12 9 -55 -8 -24 -19 -44 -23 -44 -11 0
-57 55 -75 89 -7 15 -17 45 -21 66 l-7 40 47 -43 c25 -23 57 -47 70 -53z m434
52 c7 -21 12 -43 12 -48 0 -12 -88 -33 -136 -33 l-34 0 0 54 0 55 48 4 c106 8
98 10 110 -32z m176 -57 c-9 -20 -33 -52 -52 -72 l-35 -37 -12 30 c-28 69 -28
70 19 92 23 12 54 34 67 50 l24 30 3 -28 c2 -16 -5 -45 -14 -65z m-434 -43
l55 -6 3 -67 c3 -65 2 -68 -20 -68 -30 0 -92 17 -149 42 l-47 19 16 50 c16 50
16 50 52 43 19 -3 60 -9 90 -13z m291 -8 c28 -74 26 -79 -37 -103 -32 -12 -80
-24 -106 -27 l-48 -6 0 66 c0 75 -10 67 105 85 33 5 63 10 68 11 4 0 12 -11
18 -26z m-455 -99 c72 -42 156 -64 249 -64 140 0 255 47 335 137 l43 48 -7
-40 c-21 -113 -114 -232 -224 -283 -49 -23 -70 -27 -147 -27 -78 0 -98 4 -152
29 -107 49 -203 173 -220 283 l-6 38 43 -48 c23 -26 62 -59 86 -73z"/>
<path d="M883 1429 c-55 -10 -95 -32 -136 -73 -48 -48 -70 -101 -75 -179 -4
-58 0 -75 22 -122 103 -210 390 -204 487 10 22 47 24 143 5 197 -42 117 -177
192 -303 167z"/>
<path d="M1581 1429 c-126 -24 -213 -132 -213 -264 0 -99 47 -178 141 -233 39
-23 57 -27 121 -27 87 0 134 19 190 75 56 56 75 103 75 190 0 89 -21 136 -85
194 -67 60 -142 82 -229 65z"/>
<path d="M1221 924 c-26 -21 -31 -33 -31 -69 0 -36 5 -48 32 -70 90 -76 202
53 119 136 -37 37 -79 38 -120 3z"/>
</g>
</svg>
