<?xml version="1.0" standalone="no"?>
<!DOCTYPE svg PUBLIC "-//W3C//DTD SVG 20010904//EN"
 "http://www.w3.org/TR/2001/REC-SVG-20010904/DTD/svg10.dtd">
<svg version="1.0" xmlns="http://www.w3.org/2000/svg"
 width="256.000000pt" height="256.000000pt" viewBox="0 0 256.000000 256.000000"
 preserveAspectRatio="xMidYMid meet">

<g transform="translate(0.000000,256.000000) scale(0.100000,-0.100000)"
fill="#000000" stroke="none">
<path d="M1164 2429 c-209 -234 -472 -552 -525 -637 -15 -24 -29 -28 -46 -11
-7 7 -5 23 6 54 14 40 14 49 1 87 -45 128 -230 109 -256 -27 -5 -27 -12 -35
-34 -40 -46 -10 -82 -57 -87 -112 -5 -58 10 -89 56 -120 42 -29 95 -30 140 -2
31 18 35 19 57 4 13 -8 24 -18 24 -21 0 -3 -29 -52 -64 -107 -83 -134 -169
-306 -209 -420 -30 -86 -31 -100 -31 -227 1 -162 15 -227 81 -358 46 -93 89
-142 123 -142 19 0 30 -19 30 -51 0 -11 15 -35 33 -55 53 -58 149 -58 195 1
16 20 29 23 127 28 61 3 143 14 183 24 39 11 72 17 72 14 0 -3 -22 -73 -49
-156 l-49 -150 174 -3 c97 -1 251 -1 344 0 l169 3 -49 150 c-28 83 -50 153
-50 156 0 3 33 -3 73 -14 39 -10 113 -21 162 -24 84 -5 92 -8 123 -37 29 -27
40 -31 92 -31 67 0 92 17 120 78 10 23 35 49 64 68 140 93 210 258 210 499 0
127 -2 141 -32 230 -51 148 -124 287 -275 522 -9 13 -8 21 0 29 9 9 20 6 46
-10 100 -61 224 21 202 135 -8 45 -53 92 -94 100 -24 5 -31 12 -31 31 0 93
-115 153 -197 103 -57 -34 -78 -115 -49 -182 20 -44 -16 -9 -94 94 -87 114
-387 468 -502 592 l-63 69 -121 -134z m284 -182 c27 -71 28 -122 4 -207 -10
-36 -16 -76 -12 -90 8 -33 65 -70 107 -70 85 0 138 59 132 143 -2 26 -1 47 2
47 4 0 21 -16 38 -35 47 -53 44 -109 -9 -182 -22 -31 -40 -67 -40 -80 l0 -24
-36 27 c-76 59 -191 63 -264 9 -33 -25 -80 -86 -80 -104 0 -19 -18 -12 -25 10
-4 11 -21 36 -37 55 -85 96 -227 104 -320 17 -31 -30 -41 -25 -69 29 -46 90
-9 228 74 278 46 29 49 25 22 -26 -29 -54 -30 -72 -10 -120 18 -44 71 -69 130
-61 67 9 76 31 69 156 -6 88 -4 112 9 138 16 30 73 80 82 71 2 -2 -2 -22 -10
-43 -17 -49 -18 -67 -4 -99 25 -53 117 -61 153 -13 31 42 28 176 -7 272 l-26
70 53 -55 c35 -37 60 -74 74 -113z m-919 -282 c51 -26 65 -112 25 -156 -14
-15 -1 -28 151 -159 91 -78 165 -146 165 -151 0 -5 16 -27 36 -49 l36 -40 -86
0 -87 0 -160 139 -160 138 -29 -28 c-64 -64 -170 -20 -170 71 0 55 42 100 93
100 34 0 34 0 33 46 -1 40 3 50 32 75 36 33 77 37 121 14z m1603 -15 c26 -26
30 -36 26 -75 l-3 -45 36 0 c72 0 117 -72 89 -140 -26 -62 -105 -80 -158 -35
-17 14 -33 25 -36 25 -4 0 -77 -61 -163 -135 l-156 -135 -73 0 c-76 0 -88 6
-54 28 11 6 33 36 50 65 25 45 160 173 283 269 21 16 22 18 4 46 -44 76 0 162
83 162 33 0 48 -6 72 -30z m-1017 -151 c55 -15 101 -52 126 -101 17 -33 20
-55 17 -109 -3 -57 -8 -74 -34 -106 -46 -58 -106 -86 -176 -80 -134 11 -215
130 -179 262 18 69 114 143 186 145 11 0 38 -5 60 -11z m446 -4 c54 -19 96
-58 120 -110 56 -120 -28 -266 -162 -282 -115 -14 -229 86 -229 201 0 76 74
175 146 194 56 14 76 14 125 -3z m208 -159 l-43 -41 -7 25 c-13 48 -10 60 15
60 13 0 34 9 47 19 24 19 24 19 27 -2 3 -15 -9 -33 -39 -61z m-469 -135 c10
-22 31 -48 45 -59 14 -11 25 -23 25 -26 0 -3 -43 -6 -95 -6 l-96 0 37 36 c20
20 40 50 46 65 5 16 12 29 14 29 2 0 13 -18 24 -39z m825 -141 l0 -25 -841 -3
c-771 -2 -842 -1 -848 14 -17 43 -28 43 852 41 l837 -2 0 -25z m-345 -67 c0
-5 -7 -29 -14 -55 -66 -217 -224 -346 -445 -364 -195 -15 -352 54 -452 201
-43 62 -89 172 -89 210 0 13 65 15 500 15 275 0 500 -3 500 -7z m-820 -443
c-10 -30 -22 -80 -25 -110 l-7 -55 -134 -115 c-74 -63 -144 -123 -155 -133
-20 -16 -21 -19 -5 -36 39 -43 25 -135 -23 -161 -38 -20 -89 -12 -123 19 -28
25 -33 36 -32 73 1 44 1 44 -35 45 -79 2 -120 108 -67 170 21 24 32 28 76 28
43 0 55 -4 74 -26 l22 -26 40 35 c145 128 408 351 410 349 1 -1 -6 -27 -16
-57z m148 -33 c-5 -23 -11 -43 -13 -46 -6 -5 -73 25 -98 43 -17 13 -17 16 -1
48 l16 35 53 -20 52 -19 -9 -41z m682 -102 c102 -87 193 -165 202 -173 15 -13
21 -11 48 12 78 65 189 -3 164 -101 -11 -43 -49 -74 -92 -75 -31 -1 -32 -2
-32 -45 0 -94 -105 -139 -171 -74 -36 36 -40 95 -9 134 l20 25 -97 84 c-53 45
-122 105 -155 132 -48 40 -58 54 -58 80 0 28 -15 94 -36 166 -7 24 -6 24 12 9
10 -9 102 -87 204 -174z m-242 142 c7 -18 12 -37 12 -41 0 -4 -25 -19 -56 -33
-60 -27 -74 -23 -74 24 0 12 -2 28 -5 35 -4 10 9 19 42 30 67 22 68 22 81 -15z
m-310 -17 c20 0 22 -5 22 -51 l0 -52 -61 6 c-33 3 -63 8 -66 11 -3 3 -2 26 2
52 l7 46 36 -6 c20 -3 47 -6 60 -6z m167 -36 c8 -56 0 -64 -67 -64 l-48 0 0
49 0 50 38 4 c20 2 44 4 53 5 13 2 19 -10 24 -44z m-368 -40 c50 -25 53 -29
53 -64 0 -20 -3 -40 -6 -43 -4 -4 -34 8 -66 25 -49 26 -58 35 -54 52 3 12 6
29 6 39 0 22 3 22 67 -9z m541 -27 c3 -35 1 -37 -57 -66 -33 -17 -62 -27 -65
-23 -2 4 -6 24 -7 46 -4 38 -3 38 51 61 30 13 60 22 65 21 6 -1 11 -19 13 -39z
m-372 -23 l54 -7 0 -48 c0 -42 -3 -49 -20 -49 -32 0 -119 21 -125 30 -3 5 -2
27 1 50 5 30 11 40 21 36 8 -4 39 -9 69 -12z m214 -11 c0 -16 3 -38 6 -49 5
-20 0 -23 -46 -33 -87 -19 -90 -18 -90 37 l0 49 58 10 c31 6 60 11 65 12 4 0
7 -11 7 -26z m-254 -108 c38 -8 89 -15 114 -15 68 0 176 26 247 59 l63 30 0
-24 c0 -40 -37 -144 -63 -178 -13 -18 -49 -46 -78 -62 -51 -29 -60 -30 -174
-30 -114 0 -123 1 -173 29 -82 46 -126 117 -139 228 l-6 47 70 -35 c38 -19
101 -41 139 -49z"/>
<path d="M1018 1781 c-115 -37 -169 -151 -118 -256 59 -122 224 -138 306 -29
26 33 29 45 29 109 0 62 -3 76 -27 107 -42 55 -130 87 -190 69z m-78 -219 c0
-4 -3 -18 -7 -31 l-6 -23 -13 23 c-7 13 -13 32 -14 42 0 15 3 16 20 7 11 -6
20 -14 20 -18z m279 -4 c-13 -46 -27 -56 -35 -24 -5 20 -2 31 12 41 29 22 33
18 23 -17z m-209 -64 c0 -48 -5 -52 -38 -28 -16 11 -22 25 -22 54 0 39 0 39
30 29 27 -10 30 -15 30 -55z m160 23 c0 -37 -4 -46 -25 -55 -36 -16 -35 -17
-35 32 0 44 3 48 58 65 1 1 2 -19 2 -42z m-80 -11 c0 -19 3 -41 6 -50 5 -13
-2 -16 -36 -16 -39 0 -42 2 -36 23 3 12 6 34 6 50 0 23 4 27 30 27 27 0 30 -3
30 -34z"/>
<path d="M1439 1774 c-56 -17 -104 -67 -119 -124 -20 -74 7 -144 76 -196 32
-25 47 -29 98 -29 72 0 108 19 148 74 73 102 22 247 -99 280 -46 13 -47 13
-104 -5z m75 -160 c11 -4 16 -19 16 -50 0 -42 -1 -44 -30 -44 -29 0 -30 2 -30
44 0 26 5 46 13 49 6 3 13 6 14 6 1 1 8 -2 17 -5z m-54 -49 c0 -34 -5 -47 -19
-55 -29 -15 -31 -14 -31 35 0 31 5 47 18 54 28 17 32 13 32 -34z m111 35 c14
-8 19 -21 19 -55 0 -49 -2 -50 -31 -35 -14 8 -19 21 -19 55 0 49 2 50 31 35z
m-181 -76 c0 -45 -10 -51 -29 -15 -7 13 -6 24 5 39 8 12 17 22 20 22 2 0 4
-21 4 -46z m240 21 c11 -20 11 -27 0 -40 -21 -25 -30 -17 -30 25 0 46 11 51
30 15z"/>
<path d="M991 1245 c-75 -64 -60 -184 29 -230 112 -58 235 66 179 180 -35 73
-147 100 -208 50z"/>
<path d="M1403 1250 c-119 -79 -48 -261 97 -246 36 3 51 11 76 41 56 63 52
138 -10 194 -37 34 -119 40 -163 11z"/>
<path d="M1243 993 c-24 -9 -15 -53 12 -63 51 -19 97 24 63 58 -12 12 -52 15
-75 5z"/>
</g>
</svg>
