<?xml version="1.0" standalone="no"?>
<!DOCTYPE svg PUBLIC "-//W3C//DTD SVG 20010904//EN"
 "http://www.w3.org/TR/2001/REC-SVG-20010904/DTD/svg10.dtd">
<svg version="1.0" xmlns="http://www.w3.org/2000/svg"
 width="2023.000000pt" height="1824.000000pt" viewBox="0 0 2023.000000 1824.000000"
 preserveAspectRatio="xMidYMid meet">

<g transform="translate(0.000000,1824.000000) scale(0.100000,-0.100000)"
fill="#000000" stroke="none">
<path d="M2100 18128 c-219 -347 -348 -702 -391 -1077 -17 -157 -7 -524 20
-676 144 -818 608 -1621 1486 -2575 214 -232 688 -697 1065 -1045 387 -357
608 -574 672 -662 l46 -62 6 -168 c21 -560 58 -897 147 -1331 172 -835 524
-1622 958 -2142 l79 -95 -2978 -3 -2978 -2 -41 -118 c-139 -398 -201 -778
-188 -1152 14 -394 104 -751 260 -1027 l41 -73 1462 -2 1462 -3 -509 -485
c-280 -267 -548 -521 -596 -566 l-87 -81 678 -691 c373 -381 676 -696 674
-702 -2 -5 -354 -354 -783 -775 -429 -422 -836 -822 -904 -890 l-125 -124 39
-63 c372 -611 903 -1129 1431 -1396 l133 -67 68 66 c762 745 1708 1659 1714
1657 5 -2 169 -167 365 -368 197 -201 475 -484 617 -628 l260 -264 664 664
c365 364 661 668 659 675 -3 7 -258 301 -567 654 -409 467 -560 646 -553 655
11 17 1007 934 1014 934 3 0 27 -42 54 -92 27 -51 84 -144 127 -208 454 -676
1139 -1115 1924 -1235 445 -67 981 -30 1431 100 583 169 1111 517 1493 985 97
119 235 318 278 403 l24 48 34 -28 c18 -15 256 -239 529 -498 l496 -470 -612
-612 c-605 -605 -612 -613 -593 -631 11 -11 286 -268 610 -572 325 -304 622
-584 661 -622 l70 -69 644 603 c353 332 646 603 649 603 3 0 397 -409 875
-910 478 -501 874 -912 878 -913 14 -6 220 112 376 215 79 52 200 140 270 196
156 124 428 394 546 542 149 186 320 457 390 617 l25 57 -845 886 c-465 487
-844 890 -842 895 2 6 722 803 1070 1185 l47 51 -514 595 -513 594 131 8 c582
33 906 80 1262 182 659 189 1147 522 1467 999 230 344 368 792 368 1196 l0
100 -3111 0 -3110 0 84 98 c412 479 734 1046 927 1633 98 298 171 631 211 970
27 227 33 732 10 913 l-13 109 33 26 c60 46 510 435 639 551 1109 1001 1887
1930 2321 2775 199 387 321 733 380 1079 27 156 37 484 19 635 -43 372 -196
698 -445 947 -61 61 -121 115 -134 119 -18 6 -29 1 -51 -21 -15 -16 -820 -841
-1790 -1833 l-1763 -1803 -26 33 c-139 180 -531 581 -775 794 -1015 887 -2073
1388 -3150 1491 -210 20 -689 14 -886 -10 -993 -125 -1928 -560 -2795 -1302
-271 -231 -648 -621 -836 -864 -34 -44 -65 -80 -69 -80 -4 0 -842 824 -1864
1830 -1021 1007 -1859 1830 -1861 1830 -2 0 -36 -51 -75 -112z m381 -613 l185
-182 -13 -39 c-67 -188 -85 -431 -52 -699 66 -544 367 -1141 863 -1709 43 -50
455 -475 916 -946 l838 -856 -35 -155 c-19 -85 -52 -236 -72 -336 l-38 -182
-1083 1122 c-596 617 -1112 1158 -1147 1202 -277 349 -541 843 -677 1265 -90
280 -126 489 -133 776 -9 351 37 613 155 896 l36 86 36 -30 c19 -17 119 -113
221 -213z m15607 163 c331 -582 308 -1212 -72 -1968 -100 -198 -167 -313 -311
-530 -255 -387 -554 -760 -1014 -1265 -193 -212 -967 -986 -1256 -1256 l-229
-214 -13 72 c-16 99 -56 251 -104 396 -21 67 -38 124 -37 127 2 3 116 111 253
240 1512 1417 2264 2436 2437 3303 18 89 22 147 23 282 0 180 -10 249 -61 397
l-23 70 177 208 c97 115 180 209 183 210 3 0 24 -33 47 -72z m-11971 -6520 c5
-7 24 -65 42 -128 62 -220 186 -503 308 -705 192 -316 481 -594 756 -724 443
-209 985 -196 1438 35 385 197 710 581 912 1079 43 104 104 288 127 383 l11
42 393 0 393 0 32 -121 c121 -460 346 -867 632 -1144 286 -277 592 -408 984
-422 314 -11 605 48 870 178 498 242 878 749 1045 1394 l28 110 408 3 407 2
-7 -72 c-3 -40 -24 -161 -46 -268 -197 -974 -697 -1885 -1366 -2491 -500 -453
-1054 -757 -1740 -954 -641 -185 -1466 -255 -2250 -190 -1728 142 -2957 901
-3627 2241 -254 508 -419 1110 -461 1682 l-6 82 354 0 c271 0 356 -3 363 -12z
m-3899 -3271 c-36 -34 -182 -172 -323 -307 -141 -135 -261 -247 -267 -249 -6
-2 -80 66 -164 150 l-154 154 0 157 0 158 488 0 487 -1 -67 -62z m1963 -34
c-50 -54 -186 -196 -303 -316 l-213 -218 -250 262 c-137 144 -272 286 -298
315 l-49 54 602 0 602 0 -91 -97z m-3181 -763 l0 -850 -294 0 -294 0 -16 48
c-93 287 -135 718 -106 1067 16 184 69 477 101 562 l9 23 300 0 300 0 0 -850z
m5229 773 c-41 -43 -177 -187 -303 -320 -125 -134 -230 -243 -231 -243 -6 0
-582 583 -605 613 l-21 27 617 0 617 0 -74 -77z m13647 6 c-11 -68 -91 -298
-140 -403 -293 -627 -881 -1049 -1686 -1210 -328 -66 -127 -61 -2644 -58
-1254 1 -2281 4 -2283 6 -2 1 -8 41 -14 87 -8 70 -27 170 -66 351 l-5 28 2228
2 2229 3 157 42 c387 103 745 276 998 480 116 93 289 278 359 383 35 52 88
145 118 205 l54 110 117 5 c64 4 222 7 351 8 l234 2 -7 -41z m-16814 -386
l388 -388 -387 -400 c-212 -220 -389 -401 -392 -403 -3 -1 -186 178 -406 398
l-400 400 395 390 c217 214 400 389 405 389 6 1 184 -173 397 -386z m2063 -4
c204 -209 370 -384 370 -388 0 -4 -167 -185 -372 -402 l-371 -395 -39 3 c-21
2 -47 6 -59 8 -11 2 -148 138 -305 302 -156 163 -326 341 -378 395 l-93 98
373 380 372 380 66 0 66 0 370 -381z m1955 -18 c85 -65 191 -143 236 -174 l81
-57 -43 -107 c-24 -60 -63 -164 -87 -233 l-44 -126 -222 -267 c-147 -176 -229
-267 -241 -267 -17 0 -203 184 -725 718 l-129 132 368 369 369 369 141 -120
c77 -66 211 -173 296 -237z m-5710 -271 l53 -61 -29 -30 c-16 -17 -41 -40 -56
-51 l-28 -19 0 110 c0 61 2 111 4 111 2 0 28 -27 56 -60z m11176 -98 c25 -59
61 -161 81 -227 41 -139 104 -437 95 -447 -31 -32 -675 -225 -973 -292 -26 -6
-26 -6 -38 87 -22 168 -101 722 -106 742 -4 19 12 24 191 69 108 27 305 86
438 130 226 76 242 80 254 63 7 -9 34 -66 58 -125z m-4601 82 c163 -56 366
-115 547 -159 77 -18 141 -35 143 -37 2 -2 -17 -102 -41 -223 -24 -120 -58
-303 -75 -405 -18 -102 -36 -189 -40 -193 -23 -27 -676 200 -901 314 l-57 29
21 72 c52 189 145 451 212 602 21 47 29 57 43 51 10 -3 77 -27 148 -51z m1100
-269 c198 -32 467 -60 793 -81 l102 -6 0 -438 0 -437 -77 4 c-170 8 -385 25
-513 39 -167 19 -541 81 -551 91 -6 7 28 290 87 726 l17 128 26 -5 c14 -3 67
-12 116 -21z m2269 -2 c21 -69 114 -828 103 -839 -23 -23 -602 -95 -872 -109
-66 -3 -150 -8 -187 -11 l-68 -5 0 438 0 439 221 12 c286 16 519 43 791 91 4
0 9 -7 12 -16z m-9428 -256 c121 -127 258 -271 303 -319 l83 -88 -486 0 -486
0 0 149 0 149 178 171 c97 94 179 171 182 171 3 0 104 -105 226 -233z m2423
-409 c3 -8 -178 -9 -625 -4 -346 4 -631 9 -633 11 -2 2 135 146 304 319 l308
314 321 -315 c177 -173 323 -319 325 -325z m1931 100 l105 -108 -640 0 -640 0
323 323 322 323 213 -216 c116 -118 259 -263 317 -322z m1680 -348 c150 -50
318 -99 476 -139 l40 -11 -22 -177 c-13 -98 -30 -266 -39 -373 -9 -107 -18
-197 -20 -199 -6 -6 -224 69 -395 136 -91 35 -256 109 -367 164 l-203 99 0 78
c0 140 33 480 56 578 5 19 12 17 152 -39 81 -32 226 -85 322 -117z m4854 38
c3 -18 9 -175 12 -349 l7 -316 -44 -17 c-265 -107 -894 -291 -909 -266 -4 6
-10 53 -14 103 -8 108 -54 549 -62 592 l-5 30 113 23 c249 51 605 144 813 211
80 26 82 26 89 -11z m-7111 -131 c4 -1 -219 -228 -496 -505 l-503 -503 -480
498 c-264 274 -483 503 -487 509 -5 9 237 11 976 7 540 -2 985 -5 990 -6z
m10220 -77 c336 0 597 -4 597 -9 0 -12 -918 -991 -927 -990 -10 2 -943 997
-943 1006 0 3 152 3 338 0 185 -4 606 -7 935 -7z m-6913 -85 c254 -40 530 -68
813 -81 l147 -7 0 -399 0 -400 -127 6 c-401 21 -760 66 -1055 132 -58 13 -68
19 -68 37 0 33 71 720 76 735 2 9 13 12 31 8 16 -3 98 -17 183 -31z m2484 -52
c10 -108 26 -458 26 -580 l0 -112 -52 -10 c-264 -53 -691 -104 -958 -116 -74
-3 -147 -8 -162 -10 l-28 -4 0 128 c0 70 3 249 7 397 l6 270 239 12 c258 13
561 42 753 71 179 27 162 32 169 -46z m6102 -1053 c-28 -30 -839 -854 -1802
-1831 l-1751 -1776 -451 446 -451 446 1836 1821 1835 1821 418 -436 418 -436
-52 -55z m-12279 -911 c994 -1002 1808 -1827 1808 -1833 0 -14 -856 -847 -867
-844 -4 2 -820 824 -1813 1828 l-1805 1825 428 422 c235 232 430 422 434 422
3 1 820 -819 1815 -1820z m1848 1296 c21 -145 57 -311 89 -410 l26 -80 -568
-567 -567 -568 -190 197 c-104 108 -190 201 -190 205 0 9 1377 1339 1382 1335
1 -2 9 -52 18 -112z m6742 -626 l601 -597 -205 -211 c-113 -117 -208 -211
-212 -209 -3 2 -192 197 -420 433 -228 237 -461 478 -518 536 l-104 106 21 82
c33 130 69 361 77 487 l6 114 76 -72 c42 -40 347 -341 678 -669z m-6297 663
c614 -265 1364 -434 2150 -483 237 -15 856 -6 1075 15 640 63 1230 187 1805
381 74 25 136 45 139 45 2 0 1 -57 -2 -127 -10 -203 -54 -364 -157 -578 -344
-711 -1206 -1296 -2150 -1459 -246 -42 -601 -52 -825 -21 -413 55 -772 196
-1087 425 -493 359 -852 936 -1049 1685 -43 164 -45 180 -26 172 6 -3 64 -28
127 -55z m9973 -2806 c-20 -23 -288 -295 -596 -605 l-559 -564 -64 64 c-176
173 -829 852 -829 861 0 6 263 277 585 603 l585 592 457 -455 457 -456 -36
-40z m-13476 433 c279 -270 545 -528 590 -573 l83 -81 -463 -463 -464 -464
-577 602 c-317 332 -575 608 -573 613 4 13 879 856 889 856 3 1 235 -220 515
-490z m-1103 -1254 l577 -584 -207 -213 c-114 -117 -213 -219 -219 -226 -10
-11 -31 1 -111 64 -461 360 -877 804 -1024 1094 l-23 44 209 203 c115 111 212
202 215 203 3 0 266 -263 583 -585z m15095 351 l223 -224 -40 -81 c-169 -337
-516 -689 -1002 -1017 l-155 -104 -217 222 c-119 123 -217 227 -218 231 0 9
1171 1196 1180 1196 3 1 106 -100 229 -223z"/>
<path d="M10004 9155 c-88 -19 -179 -69 -250 -137 -213 -204 -210 -538 6 -742
172 -162 414 -189 619 -69 111 64 213 209 240 341 57 275 -125 548 -404 607
-84 18 -130 18 -211 0z"/>
</g>
</svg>
