<?xml version="1.0" encoding="UTF-8" standalone="no"?>
<!-- Created with Inkscape (http://www.inkscape.org/) -->

<svg
   width="400mm"
   height="300mm"
   viewBox="0 0 400 300"
   version="1.1"
   id="svg5"
   inkscape:version="1.2.2 (732a01da63, 2022-12-09)"
   sodipodi:docname="Logo Acrylique base.svg"
   xmlns:inkscape="http://www.inkscape.org/namespaces/inkscape"
   xmlns:sodipodi="http://sodipodi.sourceforge.net/DTD/sodipodi-0.dtd"
   xmlns="http://www.w3.org/2000/svg"
   xmlns:svg="http://www.w3.org/2000/svg">
  <sodipodi:namedview
     id="namedview7"
     pagecolor="#ffffff"
     bordercolor="#eeeeee"
     borderopacity="1"
     inkscape:showpageshadow="0"
     inkscape:pageopacity="0"
     inkscape:pagecheckerboard="0"
     inkscape:deskcolor="#505050"
     inkscape:document-units="mm"
     showgrid="true"
     inkscape:zoom="1.6819304"
     inkscape:cx="846.94348"
     inkscape:cy="447.99713"
     inkscape:window-width="1280"
     inkscape:window-height="961"
     inkscape:window-x="-8"
     inkscape:window-y="-8"
     inkscape:window-maximized="1"
     inkscape:current-layer="layer1">
    <inkscape:grid
       type="xygrid"
       id="grid132"
       dotted="false"
       empcolor="#2600ff"
       empopacity="0.11764706" />
  </sodipodi:namedview>
  <defs
     id="defs2" />
  <g
     inkscape:label="Calque 1"
     inkscape:groupmode="layer"
     id="layer1">
    <g
       transform="matrix(0.02265513,0,0,-0.02265513,-21.841148,370.3252)"
       fill="#000000"
       stroke="none"
       id="g170">
      <path
         d="m 2970,15743 c -394,-28 -701,-122 -963,-297 -207,-139 -431,-361 -594,-591 -244,-346 -401,-739 -432,-1090 -27,-297 -21,-639 13,-802 45,-208 130,-355 308,-529 126,-124 195,-177 290,-225 126,-63 208,-81 373,-82 201,0 380,43 580,138 l 90,43 -75,-5 c -374,-27 -745,285 -905,760 -55,164 -69,257 -69,457 -1,210 12,294 71,469 155,465 485,791 956,946 438,143 1010,116 1356,-65 155,-81 297,-212 397,-365 129,-198 204,-455 205,-700 0,-257 -110,-618 -499,-1630 -195,-507 -208,-546 -237,-689 -39,-197 -49,-308 -49,-551 1,-266 12,-356 73,-547 66,-209 138,-617 215,-1220 l 33,-260 -61,-26 c -205,-87 -482,-243 -660,-370 -566,-407 -955,-1030 -1106,-1772 -51,-255 -63,-400 -56,-705 3,-148 9,-289 12,-312 6,-39 4,-43 -25,-57 -16,-9 -43,-33 -58,-53 -25,-33 -28,-45 -28,-113 0,-69 3,-80 29,-114 30,-40 94,-75 137,-76 23,0 27,-7 53,-102 16,-57 44,-145 62,-197 19,-51 32,-97 29,-101 -2,-4 -22,-10 -42,-14 -21,-3 -65,-19 -98,-35 -176,-84 -264,-230 -253,-422 9,-153 78,-261 231,-363 98,-65 180,-103 325,-150 506,-165 1071,-236 1757,-223 959,19 1756,151 2794,462 881,264 1291,428 1631,653 l 75,50 7,-31 c 3,-18 10,-106 13,-197 11,-240 11,-241 65,-258 105,-31 657,-128 668,-118 4,5 -23,415 -38,576 -5,52 -8,95 -7,96 5,4 182,53 183,51 9,-9 24,-354 24,-548 v -239 l 23,5 c 263,62 584,135 589,135 11,0 9,468 -2,670 -27,487 -25,692 15,1190 32,413 49,848 60,1557 l 5,372 -46,7 c -28,4 -88,0 -153,-10 -115,-18 -517,-109 -528,-119 -3,-4 8,-139 25,-300 58,-530 65,-635 58,-947 -3,-157 -12,-370 -21,-475 -8,-104 -18,-232 -21,-283 -4,-56 -12,-99 -20,-107 -13,-12 -180,-43 -188,-34 -2,2 2,56 10,119 63,525 69,961 18,1400 -19,168 -76,546 -84,559 -3,7 -113,-19 -295,-69 -160,-44 -312,-86 -339,-92 l -48,-12 6,-71 c 26,-267 36,-404 42,-575 6,-175 4,-230 -26,-540 -18,-190 -34,-351 -36,-357 -2,-7 -15,-13 -28,-13 -24,0 -28,9 -61,118 -20,64 -63,203 -96,309 l -59,192 34,45 c 20,27 36,61 40,88 16,111 -68,218 -172,218 h -41 l -85,173 c -46,94 -102,202 -122,239 -21,37 -36,69 -33,71 4,3 171,51 969,274 835,233 1129,293 1435,293 267,0 461,-46 1150,-270 404,-131 421,-135 605,-135 232,1 320,25 702,196 229,102 580,267 938,439 307,148 360,170 474,195 287,64 517,-91 424,-284 -30,-63 -267,-299 -330,-330 -26,-12 -98,-36 -160,-52 -160,-41 -184,-73 -126,-167 34,-55 62,-63 252,-71 94,-5 184,-13 199,-20 45,-18 99,-13 154,15 40,19 57,35 72,68 12,23 21,48 21,54 0,25 46,42 110,40 49,-1 75,4 105,19 62,32 76,54 81,125 3,35 7,72 9,84 7,33 51,74 80,74 72,0 124,70 125,166 0,47 -4,55 -40,93 -37,38 -40,45 -40,99 1,43 7,67 25,97 30,49 32,104 5,163 -22,48 -74,78 -118,67 -22,-5 -36,4 -103,73 -72,74 -87,100 -103,173 -13,58 -116,71 -204,24 -65,-34 -107,-30 -157,14 -68,59 -135,60 -236,3 -74,-43 -115,-42 -195,3 -51,29 -73,35 -119,35 -56,0 -57,-1 -113,-59 -45,-47 -65,-60 -97,-66 -22,-3 -52,-8 -67,-10 -22,-3 -30,2 -47,30 -11,18 -34,41 -52,51 -61,31 -191,2 -241,-53 -10,-10 -24,-35 -33,-56 -10,-25 -31,-47 -63,-67 l -47,-29 -23,29 c -12,16 -38,38 -58,51 -65,40 -211,13 -268,-50 -13,-15 -21,-41 -24,-81 l -4,-59 -47,-16 c -42,-15 -47,-14 -56,1 -43,71 -87,94 -177,94 -95,0 -159,-22 -202,-70 -20,-22 -36,-46 -36,-53 0,-8 -8,-21 -18,-30 -22,-20 -35,-12 -77,51 -17,26 -50,56 -80,73 -42,24 -61,29 -118,29 -73,0 -123,-19 -186,-71 -40,-33 -56,-29 -72,19 -7,20 -35,60 -64,88 -78,78 -174,102 -281,69 -92,-28 -140,-18 -214,44 -70,59 -120,80 -279,116 -222,51 -275,72 -404,159 -37,25 -91,52 -119,61 -65,19 -194,19 -274,0 -197,-46 -257,-41 -409,35 -120,60 -161,69 -285,70 -162,0 -277,-38 -363,-119 -94,-89 -156,-94 -289,-27 -106,54 -195,71 -328,63 -171,-11 -311,-63 -447,-166 -45,-34 -101,-68 -125,-77 -65,-24 -150,-20 -263,11 -126,34 -308,39 -420,12 -91,-23 -240,-96 -307,-150 -29,-24 -69,-49 -88,-57 -19,-8 -53,-31 -75,-51 l -40,-37 -130,63 c -315,152 -605,226 -948,241 -134,6 -360,-6 -464,-26 -38,-6 -44,-5 -58,16 -8,13 -15,26 -15,29 0,3 35,5 78,5 188,0 326,53 428,162 113,123 166,278 198,588 15,144 40,540 34,546 -7,7 -277,-49 -462,-96 -109,-27 -201,-50 -204,-50 -3,0 -2,-134 2,-298 4,-211 3,-307 -5,-330 -30,-86 -94,-46 -125,78 -18,71 -19,118 -15,830 2,493 -1,845 -9,1015 -13,275 -7,396 26,504 17,59 64,114 91,109 37,-7 45,-69 54,-407 4,-178 11,-326 16,-330 4,-3 147,-5 317,-3 l 308,3 -7,177 c -11,284 -52,673 -81,764 -19,60 -84,132 -146,164 -106,54 -292,55 -508,4 -106,-25 -268,-105 -337,-165 -29,-26 -53,-44 -53,-41 0,3 20,60 43,128 120,338 217,688 258,929 20,115 23,169 23,379 1,283 -15,397 -84,604 -142,423 -430,754 -850,975 -353,185 -874,286 -1320,254 z m 490,-84 c 127,-11 312,-47 405,-77 l 60,-20 -75,6 c -41,4 -172,7 -290,7 -194,0 -222,-2 -286,-22 -72,-23 -124,-60 -124,-87 0,-20 59,-50 136,-70 32,-8 174,-36 314,-61 404,-73 572,-122 684,-201 34,-23 81,-55 105,-70 51,-31 123,-43 146,-24 31,26 11,109 -43,179 l -27,36 40,-32 c 97,-77 246,-248 337,-387 304,-462 378,-1068 202,-1659 -26,-87 -125,-349 -130,-344 -2,1 24,124 56,272 80,365 103,516 79,530 -20,13 -57,-36 -117,-153 -115,-224 -230,-539 -312,-857 -122,-475 -193,-1005 -134,-1005 20,0 39,35 85,151 22,57 38,93 35,79 -49,-249 -69,-643 -46,-910 36,-416 151,-756 466,-1383 84,-169 154,-311 154,-315 0,-11 -81,113 -162,248 -99,166 -218,382 -384,697 -75,142 -134,251 -131,243 2,-8 63,-193 135,-410 153,-463 202,-624 236,-792 27,-132 46,-268 39,-280 -11,-19 -480,0 -564,22 -49,14 -85,44 -111,93 -16,32 -26,91 -44,252 -29,260 -43,337 -100,545 -60,222 -109,445 -135,620 -21,132 -22,177 -21,505 3,393 9,461 63,665 65,247 169,541 407,1150 170,437 211,555 240,690 74,342 46,725 -72,984 -99,216 -240,358 -460,462 -568,268 -1259,251 -1851,-44 -402,-200 -612,-478 -709,-938 -44,-210 -59,-371 -53,-549 11,-298 82,-497 266,-742 163,-217 318,-328 524,-373 31,-7 57,-16 57,-20 0,-26 -230,-53 -350,-40 -228,23 -385,98 -546,259 -191,190 -324,440 -375,702 -22,117 -37,349 -22,349 6,0 13,-17 16,-39 8,-62 36,-113 61,-109 32,5 46,64 51,217 6,210 36,327 177,686 41,105 78,202 82,218 16,66 -65,5 -134,-102 -18,-28 -35,-51 -37,-51 -8,0 124,252 183,348 231,377 407,547 729,706 174,86 306,134 495,181 263,64 535,87 780,64 z m 6957,-6413 c 34,32 87,41 138,23 32,-11 44,-23 61,-58 l 21,-44 33,42 c 18,22 36,41 40,41 4,0 12,-12 18,-26 11,-23 9,-29 -16,-54 -74,-74 -261,-67 -367,14 -58,45 -57,75 5,121 l 35,26 3,-55 3,-54 z m -958,23 29,-52 22,42 c 27,54 52,62 164,59 l 91,-3 3,-55 4,-55 53,60 c 53,59 53,59 74,41 30,-27 26,-54 -14,-92 -99,-93 -363,-99 -469,-12 -41,34 -46,62 -14,95 12,13 23,23 25,23 1,0 16,-23 32,-51 z m -637,-70 c 19,-23 16,-52 -9,-102 -27,-54 -1,-50 59,10 48,46 59,53 53,33 -30,-100 -196,-182 -369,-182 -59,1 -105,6 -131,16 -39,16 -39,16 -7,13 17,-2 32,-2 32,1 0,2 -11,17 -25,34 -42,50 -43,77 -5,109 57,48 264,103 350,94 20,-3 42,-14 52,-26 z m 4962,-125 c -35,-53 -109,-67 -159,-30 -17,12 -10,16 66,34 113,27 113,27 93,-4 z m -8084,-4 c 142,-17 146,-18 159,-46 6,-15 10,-28 9,-29 -21,-16 -131,-81 -176,-104 -65,-33 -257,-94 -457,-146 -360,-93 -769,-153 -1225,-180 l -104,-6 18,20 c 32,36 114,82 179,103 51,16 108,21 317,28 309,11 571,40 785,86 l 70,16 135,139 c 131,136 136,140 170,135 19,-3 73,-10 120,-16 z m 5502,-2 c 28,-8 48,-23 65,-50 l 25,-38 29,21 c 25,17 29,18 29,4 0,-9 -11,-27 -25,-40 -45,-46 -170,-31 -232,27 -30,29 -49,68 -33,68 4,0 13,-7 20,-15 11,-13 15,-12 36,10 26,29 32,29 86,13 z m 3523,2 c 10,-17 -12,-37 -60,-55 -41,-16 -45,-16 -90,4 -68,30 -49,49 53,54 43,1 80,4 84,5 4,1 10,-3 13,-8 z m -425,-36 c 0,-17 -24,-46 -50,-59 -41,-21 -96,-19 -120,5 -36,36 -24,45 65,53 75,7 105,7 105,1 z m -8126,-54 c 189,-46 339,-101 531,-195 285,-140 523,-312 770,-560 350,-349 607,-755 818,-1290 75,-192 178,-509 184,-571 10,-95 -9,-112 -332,-294 C 7059,5458 5840,5057 4639,4916 c -357,-42 -637,-59 -1244,-77 -452,-14 -501,-10 -621,45 -68,31 -148,112 -191,191 -93,176 -194,582 -224,899 -16,178 -7,494 21,656 95,569 346,1057 803,1558 134,148 219,217 408,336 l 142,90 18,-23 c 11,-13 19,-30 19,-38 0,-28 69,-224 94,-266 54,-91 125,-136 250,-158 94,-16 675,-6 851,15 334,40 565,105 805,227 183,93 283,164 341,243 24,33 29,49 29,99 0,66 -27,129 -101,238 -21,32 -39,60 -39,64 0,6 2,6 174,-35 z m 1543,4 c 11,-14 13,-35 9,-81 -7,-86 7,-82 68,18 46,77 49,79 67,63 27,-25 23,-64 -11,-111 -101,-137 -418,-210 -598,-138 -65,26 -97,76 -73,114 8,12 18,7 56,-25 79,-65 94,-76 105,-69 6,4 0,21 -15,43 -45,66 -29,105 63,152 116,58 297,77 329,34 z m 5592,-40 c -35,-38 -84,-64 -118,-64 -11,0 -32,11 -48,24 l -28,24 55,16 c 109,30 125,34 149,35 24,1 24,0 -10,-35 z m -2801,-9 c 68,-21 86,-39 78,-83 l -5,-35 27,24 c 58,53 59,53 77,19 15,-29 15,-33 0,-57 -37,-57 -152,-82 -264,-59 -88,18 -155,56 -177,98 -15,29 -15,32 3,56 28,37 37,37 56,-3 9,-19 20,-35 24,-35 5,0 15,15 23,33 16,33 50,57 86,57 11,0 43,-7 72,-15 z m 1152,0 c 0,-12 13,-15 61,-15 54,0 64,-3 92,-31 26,-26 34,-30 50,-20 16,11 17,10 7,-8 -25,-48 -85,-53 -157,-13 -88,48 -96,57 -81,81 15,25 28,27 28,6 z m 2224,-34 c 3,-5 -12,-25 -34,-45 -37,-34 -44,-36 -105,-36 -50,0 -65,3 -65,15 0,19 22,30 106,54 80,23 91,24 98,12 z m -4428,-23 c -26,-64 -29,-88 -12,-113 24,-36 39,-31 64,20 13,27 34,50 52,60 77,40 217,36 253,-6 11,-14 17,-38 17,-71 0,-27 4,-47 9,-44 5,3 26,35 47,71 42,71 55,76 87,33 27,-36 16,-71 -34,-108 -85,-61 -225,-94 -335,-79 -133,18 -244,84 -244,143 0,29 63,106 87,106 8,0 12,-6 9,-12 z m 3357,-49 c 20,-5 37,-14 37,-19 0,-17 -68,-61 -102,-66 -35,-6 -108,17 -108,34 0,11 40,48 60,55 25,9 73,8 113,-4 z m -585,-22 c 25,6 130,-15 138,-28 6,-10 -63,-32 -98,-31 -26,1 -118,36 -118,46 0,2 3,11 6,20 5,14 8,14 27,1 12,-8 31,-12 45,-8 z m 1872,-79 c -264,-128 -846,-397 -955,-440 -128,-51 -307,-102 -449,-129 -141,-27 -442,-37 -583,-20 -203,25 -424,86 -647,180 -119,50 -242,84 -398,111 -398,67 -878,77 -1288,24 -313,-40 -559,-96 -1155,-267 -220,-64 -460,-130 -534,-148 l -133,-33 -26,29 -25,30 34,9 c 78,21 412,130 669,218 410,140 768,224 1150,270 210,25 636,30 875,10 426,-36 665,-92 1010,-235 269,-112 504,-154 805,-144 347,12 443,43 1357,431 457,194 434,184 448,184 6,0 -64,-36 -155,-80 z m -5053,50 c 81,-56 78,-122 -10,-205 -94,-89 -250,-143 -413,-145 -116,-1 -191,21 -244,69 -33,29 -40,42 -40,72 0,36 41,111 60,111 6,0 10,-21 10,-46 0,-53 12,-79 42,-95 23,-13 88,-30 88,-23 0,2 -11,20 -25,40 -14,20 -25,45 -25,55 0,42 93,98 218,130 171,43 242,10 206,-97 -22,-66 -6,-72 46,-18 44,44 45,46 43,109 0,36 2,65 5,65 3,0 21,-10 39,-22 z m 1973,-68 c 0,16 144,7 165,-10 8,-6 17,-25 20,-42 l 7,-30 32,31 c 37,36 49,32 34,-9 -28,-80 -239,-53 -291,37 -23,41 -12,66 15,34 10,-13 18,-18 18,-11 z m 2400,22 c 0,-14 -54,-60 -83,-71 -16,-6 -39,-11 -53,-11 -33,0 -89,29 -78,40 9,9 163,47 197,49 9,1 17,-3 17,-7 z m -1824,-107 c 7,-30 3,-29 48,-10 20,9 47,13 61,9 27,-7 85,-67 85,-88 0,-50 -205,-6 -226,49 -8,20 4,65 16,65 5,0 12,-11 16,-25 z m 1324,-26 c 17,-31 5,-48 -56,-76 -65,-29 -140,-29 -174,2 -27,24 -26,30 14,54 26,17 50,21 110,21 44,0 76,4 76,10 0,17 19,11 30,-11 z m -1098,-41 -22,-22 v 21 c 0,12 3,29 6,38 6,15 8,15 23,1 14,-15 13,-18 -7,-38 z m 340,20 c -24,-24 -14,-39 23,-32 26,5 44,1 71,-15 48,-29 61,-17 28,26 -14,19 -23,37 -20,41 7,6 86,-67 86,-79 0,-14 -100,-49 -140,-49 -34,0 -48,6 -76,34 -19,19 -34,39 -34,44 0,6 15,19 32,30 33,21 51,21 30,0 z M 7785,8418 c 34,-15 42,-52 22,-107 -9,-26 -12,-51 -8,-59 6,-11 25,6 72,68 l 63,82 18,-22 c 10,-12 18,-29 18,-37 0,-39 -53,-102 -119,-141 l -35,-21 -103,109 c -57,60 -105,113 -106,117 -5,20 138,29 178,11 z M 9044,5944 c 95,-33 189,-158 203,-271 13,-112 -57,-269 -176,-395 -281,-299 -720,-556 -1276,-748 -271,-93 -1681,-474 -1905,-515 -784,-141 -1613,-179 -2380,-109 -214,19 -562,69 -665,95 -123,31 -443,138 -509,171 -79,40 -149,107 -176,170 -48,112 -4,279 98,368 44,39 110,80 129,80 5,0 23,-30 41,-66 76,-153 301,-319 511,-376 103,-29 328,-31 451,-5 117,25 292,84 432,147 l 118,52 67,-62 c 129,-121 287,-209 463,-258 88,-25 109,-27 285,-26 173,0 199,3 285,27 246,67 461,193 685,399 l 69,65 66,-38 c 319,-184 712,-207 1026,-59 242,113 408,273 589,567 1,2 35,-4 76,-12 41,-8 139,-18 219,-21 290,-13 533,50 748,193 192,127 350,336 422,558 12,39 25,73 27,78 6,11 24,9 77,-9 z"
         id="path134" />
      <path
         d="m 1167,13173 c -13,-78 31,-250 74,-289 44,-40 78,29 59,120 -13,62 -88,199 -111,204 -12,2 -18,-7 -22,-35 z"
         id="path136" />
      <path
         d="m 6304,8825 -40,-25 48,-142 c 149,-436 217,-911 190,-1331 -19,-283 -59,-527 -132,-804 -32,-119 -33,-122 -64,-129 -51,-10 -94,-43 -122,-90 -23,-38 -26,-53 -22,-108 3,-50 10,-71 31,-99 l 27,-35 -57,-139 c -32,-76 -101,-227 -155,-336 -54,-109 -98,-200 -98,-203 0,-7 32,2 405,112 519,153 535,159 1073,398 278,124 460,216 679,344 84,49 116,74 131,101 41,73 39,92 -31,271 -173,441 -422,1007 -482,1096 -50,73 -99,97 -183,92 -37,-3 -74,-8 -84,-12 -21,-10 -25,3 -38,139 -20,202 -19,201 -280,396 -169,126 -723,517 -743,524 -6,2 -30,-7 -53,-20 z"
         id="path138" />
      <path
         d="m 5395,6121 c -110,-27 -171,-124 -144,-234 40,-166 272,-195 351,-44 29,56 29,128 0,184 -35,68 -132,112 -207,94 z"
         id="path140" />
      <path
         d="m 4415,5886 c -16,-7 -45,-28 -62,-46 -117,-120 -29,-320 141,-320 109,0 186,80 186,193 0,132 -144,226 -265,173 z"
         id="path142" />
      <path
         d="m 3508,5771 c -117,-38 -169,-174 -106,-281 72,-123 258,-122 328,2 68,120 -10,271 -145,283 -28,2 -62,0 -77,-4 z"
         id="path144" />
      <path
         d="m 2685,5703 c -70,-37 -105,-95 -105,-173 0,-103 71,-179 174,-188 157,-13 260,166 172,299 -46,70 -168,101 -241,62 z"
         id="path146" />
      <path
         d="m 7210,12934 c -81,-27 -218,-93 -428,-204 -74,-38 -155,-76 -180,-84 l -47,-13 1,-64 c 0,-35 4,-158 9,-274 10,-287 -13,-462 -110,-825 -62,-232 -79,-352 -110,-755 -40,-536 -92,-957 -146,-1184 -10,-46 -18,-85 -17,-86 33,-27 597,-149 613,-133 2,1 10,55 19,118 9,63 19,129 21,145 l 5,31 84,-7 c 46,-4 106,-14 135,-24 l 51,-17 v -184 c 0,-216 -8,-207 123,-145 118,57 220,82 365,88 139,6 132,0 112,101 -37,197 -144,1033 -174,1362 -8,91 -20,377 -26,635 -12,542 -22,721 -50,930 -23,165 -80,456 -108,550 -22,73 -34,76 -142,39 z m -194,-1642 c 0,-330 13,-593 39,-822 7,-63 12,-116 10,-118 -7,-7 -119,19 -160,37 l -44,20 4,98 c 3,54 7,188 10,298 8,292 42,532 106,733 17,50 31,92 32,92 1,0 2,-152 3,-338 z"
         id="path148" />
      <path
         d="m 12670,12941 c -90,-29 -195,-78 -372,-173 -91,-49 -197,-100 -235,-113 -37,-13 -69,-30 -71,-38 -1,-7 4,-103 11,-213 22,-305 0,-515 -90,-864 -77,-299 -90,-377 -118,-720 -32,-399 -37,-452 -61,-669 -28,-264 -67,-521 -94,-628 -11,-42 -19,-78 -17,-79 2,-2 61,-19 131,-39 169,-46 486,-107 486,-93 0,2 9,69 20,148 11,79 20,144 20,145 0,7 181,-17 219,-30 l 51,-17 v -184 -184 l 38,1 c 64,1 581,45 586,49 2,3 -15,131 -39,285 -55,352 -116,842 -149,1180 -20,202 -28,367 -36,735 -6,261 -15,540 -20,620 -17,254 -57,510 -117,753 -41,168 -36,163 -143,128 z m -216,-1508 c -9,-256 22,-881 53,-1051 l 6,-34 -49,7 c -27,4 -74,17 -103,29 l -55,21 2,200 c 5,365 30,604 87,830 34,134 50,185 60,185 3,0 3,-84 -1,-187 z"
         id="path150" />
      <path
         d="m 17496,12759 c -169,-14 -274,-54 -411,-156 -151,-112 -252,-243 -291,-378 -46,-159 8,-459 131,-730 112,-245 325,-534 530,-720 330,-300 416,-419 416,-582 0,-151 -100,-242 -254,-231 -49,4 -62,9 -93,39 -67,65 -81,202 -39,403 9,43 15,79 13,81 -2,1 -178,-16 -393,-39 l -390,-41 -8,-95 c -15,-193 16,-426 75,-569 55,-132 204,-303 349,-401 155,-106 313,-153 514,-154 149,0 225,15 341,69 112,51 206,118 316,224 147,140 228,284 285,500 31,117 43,373 24,515 -49,369 -249,779 -463,952 -97,78 -315,291 -382,373 -162,198 -233,404 -171,498 25,37 79,57 119,43 76,-25 110,-99 166,-359 l 43,-198 66,-7 c 36,-3 159,-6 274,-6 195,0 207,1 207,19 0,102 -51,479 -76,571 -35,120 -112,204 -248,270 -200,96 -406,131 -650,109 z"
         id="path152" />
      <path
         d="m 8107,12719 c -110,-9 -218,-27 -237,-39 -11,-7 -15,-66 -22,-297 -13,-455 4,-684 68,-885 76,-242 121,-465 130,-648 6,-105 0,-160 -61,-625 l -68,-510 12,-190 c 7,-104 15,-200 18,-212 4,-16 16,-26 42,-32 97,-24 94,-25 188,45 134,100 252,152 404,178 l 68,11 6,350 c 3,193 8,374 12,403 l 8,53 140,115 c 314,260 487,432 539,537 26,53 101,398 131,602 23,156 17,373 -20,690 -26,220 -49,278 -128,332 -93,62 -242,101 -467,122 -129,12 -628,12 -763,0 z m 668,-772 c 78,-91 105,-230 105,-541 0,-264 -8,-305 -73,-370 -38,-38 -102,-75 -112,-65 -25,25 -145,992 -125,1012 13,14 113,24 143,14 15,-5 43,-27 62,-50 z"
         id="path154" />
      <path
         d="m 10105,12719 c -195,-15 -497,-58 -513,-73 -4,-4 -9,-249 -10,-545 l -4,-537 80,-11 c 44,-7 120,-21 169,-33 l 89,-21 13,-177 c 7,-104 24,-239 41,-327 103,-534 121,-697 146,-1358 l 6,-178 42,6 c 22,3 88,16 145,27 198,39 374,14 473,-68 38,-32 127,-84 144,-84 8,0 -3,393 -17,635 -6,104 -41,397 -90,755 -44,322 -79,601 -76,621 13,98 46,122 211,154 145,28 538,85 585,85 37,0 36,-6 16,180 -31,276 -92,584 -160,797 -21,66 -30,84 -48,88 -82,18 -128,26 -257,39 -323,35 -722,45 -985,25 z"
         id="path156" />
      <path
         d="m 15287,12653 c -3,-38 -18,-273 -33,-523 -32,-533 -31,-543 45,-877 48,-209 95,-465 89,-484 -3,-8 -269,670 -307,783 -43,127 -81,383 -81,547 0,134 -48,448 -76,504 l -15,29 -262,-7 c -144,-4 -265,-9 -269,-12 -5,-2 -8,-191 -8,-419 v -416 l 35,-251 c 63,-460 62,-441 21,-1122 -20,-330 -37,-620 -38,-643 l -3,-44 160,-48 c 88,-27 205,-64 260,-84 55,-19 101,-33 103,-31 9,9 52,853 53,1040 l 1,210 29,-90 c 39,-118 75,-318 94,-513 49,-506 112,-880 155,-926 4,-4 39,-15 77,-23 90,-19 406,-73 409,-70 4,4 64,458 83,627 32,283 43,493 39,716 -4,201 -6,216 -46,389 -53,231 -79,388 -93,550 l -11,130 46,280 c 48,298 80,529 92,662 l 6,82 -38,10 c -146,39 -424,91 -485,91 -25,0 -27,-3 -32,-67 z"
         id="path158" />
      <path
         d="m 13570,12694 c -95,-12 -140,-26 -140,-42 0,-9 6,-161 14,-337 17,-373 15,-1142 -3,-1277 -6,-48 -31,-169 -56,-269 -107,-432 -113,-495 -75,-709 52,-291 71,-436 77,-577 l 6,-152 36,-13 c 56,-20 516,-18 556,2 l 30,16 -2,169 c -1,148 -7,201 -43,415 -65,384 -64,449 13,740 30,115 54,318 67,580 13,248 13,1008 0,1165 -17,215 -20,234 -41,246 -54,28 -335,56 -439,43 z"
         id="path160" />
      <path
         d="m 16000,12677 c 0,-7 14,-92 31,-189 l 32,-177 -26,-108 c -47,-192 -77,-415 -77,-575 v -79 l 53,5 c 71,9 268,26 288,26 11,0 31,33 62,103 158,354 249,668 264,903 l 6,101 -317,1 c -237,0 -316,-2 -316,-11 z"
         id="path162" />
      <path
         d="m 16340,8497 c 0,-66 -343,-2308 -367,-2397 -8,-32 -24,66 -58,365 -38,339 -52,536 -80,1115 -14,294 -27,535 -29,537 -1,1 -77,10 -170,19 -141,14 -176,14 -225,3 l -59,-13 -7,-70 c -4,-39 -12,-84 -19,-101 -26,-63 -130,-125 -212,-128 -29,-1 -44,-6 -44,-16 0,-68 110,-928 145,-1141 30,-176 49,-338 69,-570 l 15,-175 -52,-760 c -46,-672 -51,-761 -37,-766 52,-21 718,-44 737,-25 3,2 13,101 23,218 30,353 53,568 60,568 15,0 154,-531 206,-788 l 28,-140 121,-12 c 152,-15 659,-59 662,-56 7,7 -296,1179 -363,1402 -46,154 -84,290 -84,301 0,11 18,94 39,184 164,680 471,2096 471,2170 0,10 -12,25 -27,33 -117,60 -743,264 -743,243 z"
         id="path164" />
      <path
         d="m 13485,8145 c -497,-240 -443,-206 -492,-305 -188,-380 -187,-1043 3,-1870 28,-122 40,-204 55,-390 51,-650 118,-992 225,-1162 115,-182 372,-313 639,-325 127,-6 221,13 330,67 272,135 427,433 504,975 54,374 60,563 37,1050 l -14,290 49,410 c 48,403 61,618 43,727 l -6,36 -53,-5 c -34,-4 -69,0 -101,10 -31,10 -106,19 -204,23 -164,7 -218,20 -268,67 -79,73 -86,195 -16,257 35,30 125,63 207,75 47,7 147,60 154,81 4,13 -108,62 -197,88 -104,30 -252,46 -425,46 h -171 z m 462,-505 c 80,-48 102,-196 67,-432 -15,-94 -19,-178 -19,-353 1,-243 3,-263 64,-552 42,-203 62,-376 70,-628 14,-455 -23,-645 -131,-671 -36,-8 -81,36 -100,97 -15,50 -16,296 -1,394 6,42 3,133 -9,300 -18,230 -21,249 -73,450 -60,231 -122,498 -157,675 -31,157 -31,338 0,464 47,188 114,276 211,276 28,0 59,-8 78,-20 z"
         id="path166" />
      <path
         d="m 10966,8019 c -84,-80 -134,-156 -172,-261 -149,-408 -136,-990 40,-1793 35,-158 47,-236 56,-370 31,-471 88,-838 162,-1043 61,-168 165,-281 333,-362 399,-195 784,-98 991,247 110,184 176,414 224,783 40,312 45,481 27,886 l -16,369 51,425 c 47,400 50,435 44,590 -5,145 -11,204 -31,286 -5,21 -7,21 -62,8 -32,-7 -110,-18 -174,-24 -259,-25 -548,34 -989,203 -107,41 -235,87 -285,102 -49,14 -96,28 -103,30 -7,3 -50,-31 -96,-76 z m 822,-379 c 75,-46 100,-201 67,-415 -23,-145 -31,-462 -16,-594 7,-56 30,-187 51,-291 64,-312 74,-420 75,-790 0,-284 -2,-333 -18,-390 -23,-82 -56,-133 -97,-150 -28,-12 -34,-11 -58,7 -68,50 -85,173 -61,430 10,103 9,159 -6,355 -17,232 -18,234 -96,543 -141,560 -175,767 -152,919 29,197 82,326 152,373 44,30 113,31 159,3 z"
         id="path168" />
    </g>
    <path
       d="m 209.17601,82.344585 c -4.41643,0.356764 -11.25448,1.357061 -11.61566,1.698296 -0.0901,0.09103 -0.18232,5.64186 -0.17934,12.347826 l -0.044,12.166043 1.81334,0.24224 c 0.99743,0.15479 2.72042,0.46536 3.83156,0.73297 L 205,110 l 0.30986,4.00882 c 0.16767,2.35549 0.56449,5.41244 0.95691,7.40464 2.37984,12.08883 2.80171,15.78004 3.42539,30.75277 l 0.15133,4.03209 0.95099,-0.13962 c 0.49814,-0.07 1.99224,-0.37008 3.28273,-0.62382 4.48227,-0.90071 8.47172,-0.34959 10.72165,1.49952 0.86367,0.72168 2.88448,1.89202 3.2696,1.89055 0.18128,-7e-4 -0.10204,-8.90316 -0.44018,-14.38444 -0.14498,-2.35561 -0.96326,-8.99047 -2.10439,-17.09669 -1.02468,-7.29111 -1.8418,-13.60881 -1.77559,-14.06216 0.28599,-2.22132 1.03159,-2.7679 4.76686,-3.50717 3.28254,-0.64691 12.18099,-1.97229 13.24577,-1.97637 0.83824,-0.003 0.81608,0.13288 0.34683,-4.0793 -0.72622,-6.250067 -2.13489,-13.222532 -3.69387,-18.042117 -0.48151,-1.493422 -0.68695,-1.900418 -1.0951,-1.989481 -1.85926,-0.400683 -2.90206,-0.577935 -5.8257,-0.861279 -7.32057,-0.764953 -16.36079,-0.956839 -22.31731,-0.480985 z"
       id="path156-9"
       style="fill:#000000;stroke:none;stroke-width:0.0226551" />
  </g>
</svg>
