<?xml version="1.0" encoding="UTF-8" standalone="no"?>
<!-- Created with Inkscape (http://www.inkscape.org/) -->

<svg
   width="400mm"
   height="300mm"
   viewBox="0 0 400 300"
   version="1.1"
   id="svg5"
   inkscape:version="1.2.2 (732a01da63, 2022-12-09)"
   sodipodi:docname="Logo Acrylique optimisé.svg"
   xmlns:inkscape="http://www.inkscape.org/namespaces/inkscape"
   xmlns:sodipodi="http://sodipodi.sourceforge.net/DTD/sodipodi-0.dtd"
   xmlns="http://www.w3.org/2000/svg"
   xmlns:svg="http://www.w3.org/2000/svg">
  <sodipodi:namedview
     id="namedview7"
     pagecolor="#ffffff"
     bordercolor="#eeeeee"
     borderopacity="1"
     inkscape:showpageshadow="0"
     inkscape:pageopacity="0"
     inkscape:pagecheckerboard="0"
     inkscape:deskcolor="#505050"
     inkscape:document-units="mm"
     showgrid="false"
     inkscape:zoom="0.5946522"
     inkscape:cx="690.31948"
     inkscape:cy="470.02265"
     inkscape:window-width="1920"
     inkscape:window-height="1137"
     inkscape:window-x="1272"
     inkscape:window-y="15"
     inkscape:window-maximized="1"
     inkscape:current-layer="layer1">
    <inkscape:grid
       type="xygrid"
       id="grid132"
       dotted="false"
       empcolor="#2600ff"
       empopacity="0.11764706" />
  </sodipodi:namedview>
  <defs
     id="defs2" />
  <g
     inkscape:label="Calque 1"
     inkscape:groupmode="layer"
     id="layer1">
    <path
       d="M 47.22434,1.2072253 C 38.298219,1.8415693 31.343094,3.9711513 25.40745,7.9357993 20.717838,11.084862 15.643089,16.114301 11.950303,21.324981 6.4224508,29.163656 2.8655954,38.067122 2.1632863,46.019073 1.5515978,52.747646 1.6875286,60.495701 2.457803,64.188487 c 1.0194809,4.712267 2.9451669,8.042571 6.9777801,11.984564 2.8545469,2.809236 4.4177509,4.009958 6.5699879,5.097404 2.854546,1.427273 4.712267,1.835065 8.450363,1.85772 4.553682,0 8.60895,-0.97417 13.139976,-3.126407 l 2.038962,-0.974171 -1.699135,0.113276 C 29.462718,79.752561 21.057665,72.684161 17.432844,61.922974 16.186812,58.207532 15.86964,56.100605 15.86964,51.569579 15.846985,46.812002 16.141502,44.908971 17.478154,40.944323 20.9897,30.409688 28.465892,23.024116 39.136459,19.51257 c 9.922947,-3.239683 22.881681,-2.627995 30.720356,1.472584 3.511545,1.835065 6.728574,4.802887 8.994087,8.269122 2.922511,4.485716 4.621646,10.308084 4.644301,15.858591 0,5.822369 -2.492064,14.000871 -11.30491,36.927862 -4.41775,11.486148 -4.712267,12.369698 -5.369265,15.609388 -0.883551,4.463063 -1.110102,6.977783 -1.110102,12.482973 0.02266,6.02627 0.271862,8.06523 1.653825,12.39236 1.495238,4.73492 3.126408,13.97821 4.870853,27.63926 l 0.747619,5.89033 -1.381963,0.58904 c -4.644302,1.97099 -10.919773,5.50519 -14.952386,8.38239 -12.822803,9.22064 -21.635649,23.33479 -25.056574,40.14489 -1.155411,5.77706 -1.427273,9.06206 -1.268687,15.97187 0.06797,3.35296 0.203896,6.54733 0.271862,7.0684 0.13593,0.88355 0.09062,0.97417 -0.566379,1.29134 -0.362482,0.2039 -0.97417,0.74762 -1.313997,1.20073 -0.566378,0.74761 -0.634344,1.01948 -0.634344,2.56003 0,1.5632 0.06797,1.81241 0.656999,2.58268 0.679654,0.90621 2.129582,1.69913 3.103753,1.72179 0.521068,0 0.611688,0.15859 1.200722,2.31082 0.362482,1.29135 0.996825,3.285 1.404618,4.46306 0.430447,1.15542 0.724964,2.19755 0.656999,2.28817 -0.04531,0.0906 -0.498413,0.22655 -0.951516,0.31717 -0.475758,0.068 -1.472583,0.43045 -2.220203,0.79293 -3.987303,1.90303 -5.980954,5.21068 -5.731748,9.56047 0.203897,3.46623 1.767101,5.91299 5.233335,8.22381 2.220203,1.47258 4.077924,2.33348 7.362918,3.39827 11.463496,3.7381 24.263644,5.34661 39.805063,5.05209 21.726265,-0.43044 39.782405,-3.42092 63.298435,-10.46667 19.95917,-5.98095 29.24777,-9.69639 36.95051,-14.7938 l 1.69914,-1.13275 0.15858,0.70231 c 0.068,0.40779 0.22656,2.40144 0.29452,4.46306 0.24921,5.43723 0.24921,5.45988 1.47258,5.84502 2.37879,0.70231 14.88442,2.89986 15.13363,2.67331 0.0906,-0.11328 -0.52107,-9.40188 -0.86089,-13.04936 -0.11328,-1.17807 -0.18124,-2.15224 -0.15859,-2.17489 0.11328,-0.0906 4.12323,-1.20072 4.14589,-1.15541 0.2039,0.20389 0.54372,8.01991 0.54372,12.41501 v 5.41457 l 0.52107,-0.11327 c 5.9583,-1.40462 13.2306,-3.05844 13.34387,-3.05844 0.24921,0 0.2039,-10.60261 -0.0453,-15.17894 -0.61169,-11.03305 -0.56638,-15.67735 0.33983,-26.95961 0.72496,-9.35656 1.1101,-19.21155 1.35931,-35.27403 l 0.11327,-8.42771 -1.04213,-0.15859 c -0.63435,-0.0906 -1.99366,0 -3.46624,0.22655 -2.60534,0.4078 -11.7127,2.46941 -11.96191,2.69596 -0.068,0.0906 0.18124,3.14907 0.56638,6.79654 1.314,12.00722 1.47258,14.38601 1.314,21.45441 -0.068,3.55686 -0.27186,8.3824 -0.47576,10.76119 -0.18124,2.35613 -0.40779,5.25599 -0.47576,6.4114 -0.0906,1.26869 -0.27186,2.24286 -0.4531,2.4241 -0.29452,0.27186 -4.07792,0.97417 -4.25916,0.77027 -0.0453,-0.0453 0.0453,-1.26868 0.22655,-2.69596 1.42727,-11.89394 1.5632,-21.77158 0.40779,-31.71718 -0.43045,-3.80606 -1.72179,-12.3697 -1.90303,-12.66422 -0.068,-0.15858 -2.56003,0.43045 -6.68327,1.56321 -3.62482,0.99682 -7.0684,1.94834 -7.68008,2.08427 l -1.08745,0.27186 0.13593,1.60851 c 0.58903,6.04892 0.81559,9.15268 0.95152,13.0267 0.13593,3.96465 0.0906,5.21068 -0.58904,12.23377 -0.40779,4.30448 -0.77027,7.95196 -0.81558,8.08789 -0.0453,0.15858 -0.33983,0.29451 -0.63435,0.29451 -0.54372,0 -0.63434,-0.20389 -1.38196,-2.6733 -0.4531,-1.44993 -1.42727,-4.59899 -2.17489,-7.00044 l -1.33665,-4.34978 0.77027,-1.01948 c 0.4531,-0.61169 0.81559,-1.38197 0.90621,-1.99366 0.36248,-2.51471 -1.54055,-4.93881 -3.89669,-4.93881 h -0.92886 l -1.92568,-3.91934 c -1.04214,-2.12958 -2.31083,-4.57634 -2.76393,-5.41458 -0.47576,-0.83824 -0.81558,-1.5632 -0.74762,-1.60851 0.0906,-0.068 3.87403,-1.15541 21.95282,-6.20751 18.91704,-5.27864 25.57764,-6.63795 32.51011,-6.63795 6.04892,0 10.44402,1.04214 26.0534,6.11689 9.15268,2.96782 9.53781,3.05844 13.70636,3.05844 5.25599,-0.0227 7.24964,-0.56638 15.9039,-4.44041 5.18802,-2.31082 13.13997,-6.04892 21.25051,-9.9456 6.95513,-3.35296 8.15585,-3.85137 10.73853,-4.41775 6.50202,-1.44993 11.7127,2.06162 9.60578,6.43406 -0.67966,1.42727 -6.04892,6.77388 -7.4762,7.47619 -0.58903,0.27186 -2.2202,0.81558 -3.62482,1.17807 -3.62482,0.92886 -4.16854,1.65382 -2.85454,3.7834 0.77027,1.24604 1.40462,1.42728 5.70909,1.60852 2.12958,0.11327 4.16854,0.29451 4.50837,0.4531 1.01948,0.40779 2.24286,0.29452 3.48889,-0.33983 0.90621,-0.43044 1.29134,-0.79293 1.63117,-1.54055 0.27186,-0.52106 0.47576,-1.08744 0.47576,-1.22337 0,-0.56638 1.04213,-0.95152 2.49206,-0.90621 1.1101,0.0227 1.69914,-0.0906 2.37879,-0.43045 1.40462,-0.72496 1.72179,-1.22337 1.83507,-2.83189 0.068,-0.79293 0.15858,-1.63117 0.20389,-1.90303 0.15859,-0.74762 1.15541,-1.67648 1.81241,-1.67648 1.63117,0 2.80924,-1.58586 2.83189,-3.76075 0,-1.06479 -0.0906,-1.24603 -0.9062,-2.10693 -0.83824,-0.86089 -0.90621,-1.01948 -0.90621,-2.24285 0.0227,-0.97417 0.15859,-1.5179 0.56638,-2.19755 0.67966,-1.1101 0.72497,-2.35613 0.11328,-3.69279 -0.49841,-1.08744 -1.67648,-1.7671 -2.67331,-1.51789 -0.49841,0.11327 -0.81558,-0.0906 -2.33348,-1.65383 -1.63117,-1.67648 -1.97099,-2.26551 -2.33347,-3.91933 -0.29452,-1.314 -2.628,-1.60852 -4.62165,-0.54373 -1.47258,0.77028 -2.4241,0.67966 -3.55686,-0.31717 -1.54054,-1.33665 -3.05844,-1.35931 -5.34661,-0.068 -1.67648,0.97417 -2.60534,0.95151 -4.41775,-0.068 -1.15541,-0.657 -1.65382,-0.79293 -2.69596,-0.79293 -1.26868,0 -1.29134,0.0227 -2.56003,1.33665 -1.01948,1.0648 -1.47258,1.35931 -2.19754,1.49524 -0.49842,0.068 -1.17807,0.18124 -1.5179,0.22655 -0.49841,0.068 -0.67965,-0.0453 -1.06479,-0.67965 -0.24921,-0.40779 -0.77027,-0.92886 -1.17807,-1.15541 -1.38196,-0.70231 -4.32713,-0.0453 -5.45988,1.20072 -0.22655,0.22655 -0.54373,0.79293 -0.74762,1.26869 -0.22655,0.56638 -0.70231,1.06479 -1.42728,1.51789 l -1.06479,0.657 -0.52106,-0.657 c -0.27187,-0.36248 -0.8609,-0.86089 -1.314,-1.15541 -1.47259,-0.90621 -4.78023,-0.29452 -6.07158,1.13276 -0.29451,0.33982 -0.47575,0.92886 -0.54372,1.83506 l -0.0906,1.33665 -1.06479,0.36249 c -0.95152,0.33982 -1.06479,0.31717 -1.26869,-0.0227 -0.97417,-1.60851 -1.971,-2.12958 -4.00996,-2.12958 -2.15223,0 -3.60216,0.49841 -4.57633,1.58586 -0.45311,0.49841 -0.81559,1.04213 -0.81559,1.20072 0,0.18124 -0.18124,0.47576 -0.40779,0.67965 -0.49841,0.45311 -0.79293,0.27187 -1.74445,-1.15541 -0.38513,-0.58903 -1.13275,-1.26868 -1.81241,-1.65382 -0.95151,-0.54373 -1.38196,-0.657 -2.6733,-0.657 -1.65383,0 -2.78658,0.43045 -4.21386,1.60851 -0.9062,0.74762 -1.26868,0.657 -1.63116,-0.43044 -0.15859,-0.45311 -0.79293,-1.35931 -1.44993,-1.99366 -1.7671,-1.7671 -3.942,-2.31082 -6.36609,-1.5632 -2.08428,0.63434 -3.17172,0.40779 -4.8482,-0.99683 -1.58586,-1.33665 -2.71862,-1.81241 -6.32078,-2.62799 -5.02944,-1.15541 -6.23016,-1.63117 -9.15268,-3.60217 -0.83824,-0.56637 -2.06161,-1.17806 -2.69596,-1.38196 -1.47258,-0.43045 -4.39509,-0.43045 -6.2075,0 -4.46306,1.04214 -5.82237,0.92886 -9.26595,-0.79293 -2.71862,-1.35931 -3.64748,-1.5632 -6.45671,-1.58586 -3.67013,0 -6.27547,0.8609 -8.22381,2.69596 -2.12959,2.01631 -3.5342,2.12959 -6.54734,0.61169 -2.40144,-1.22338 -4.41775,-1.60851 -7.43088,-1.42727 -3.87403,0.2492 -7.04575,1.42727 -10.12684,3.76075 -1.01948,0.77027 -2.28817,1.54055 -2.83189,1.74444 -1.47259,0.54373 -3.39827,0.45311 -5.9583,-0.2492 -2.85455,-0.77028 -6.97778,-0.88355 -9.51516,-0.27186 -2.06161,0.52106 -5.43723,2.17489 -6.95512,3.39827 -0.657,0.54372 -1.56321,1.1101 -1.99365,1.29134 -0.43045,0.18124 -1.20073,0.70231 -1.69914,1.15541 l -0.9062,0.83824 -2.94517,-1.42727 c -7.13637,-3.44358 -13.70635,-5.12006 -21.47706,-5.45989 -3.03579,-0.13593 -8.15585,0.13593 -10.51198,0.58903 -0.8609,0.13593 -0.99683,0.11328 -1.314,-0.36248 -0.18124,-0.29451 -0.33983,-0.58903 -0.33983,-0.657 0,-0.068 0.79293,-0.11327 1.7671,-0.11327 4.25917,0 7.38557,-1.20072 9.6964,-3.67013 2.56003,-2.78658 3.76075,-6.29813 4.48571,-13.32122 0.33983,-3.26234 0.90621,-12.23377 0.77028,-12.3697 -0.15859,-0.15859 -6.27547,1.1101 -10.46667,2.17489 -2.46941,0.61169 -4.55368,1.13276 -4.62165,1.13276 -0.068,0 -0.0453,3.03579 0.0453,6.75123 0.0906,4.78023 0.068,6.95512 -0.11327,7.47619 -0.67966,1.94834 -2.129586,1.04214 -2.831895,-1.7671 -0.407793,-1.60851 -0.430448,-2.67331 -0.339827,-18.80376 0.04531,-11.16898 -0.02266,-19.143583 -0.203896,-22.994963 -0.294517,-6.230156 -0.158586,-8.971427 0.589033,-11.418181 0.385137,-1.336653 1.449925,-2.582685 2.061615,-2.469409 0.83824,0.158586 1.01948,1.563204 1.22338,9.22064 0.0906,4.03261 0.2492,7.38557 0.36248,7.47619 0.0906,0.068 3.3303,0.11328 7.18168,0.068 l 6.97778,-0.068 -0.15859,-4.00996 c -0.24921,-6.434054 -1.17807,-15.2469 -1.83507,-17.308517 -0.43044,-1.359307 -1.90303,-2.990477 -3.30764,-3.715441 -2.40145,-1.223377 -6.6153,-1.246032 -11.508809,-0.09062 -2.401444,0.566378 -6.071575,2.378788 -7.634779,3.738096 -0.656999,0.589033 -1.200722,0.996826 -1.200722,0.92886 0,-0.06797 0.453103,-1.359307 0.974171,-2.899856 2.718615,-7.657434 4.916163,-15.58673 5.845023,-21.046616 0.453103,-2.60534 0.521068,-3.828717 0.521068,-8.586294 0.02263,-6.411292 -0.339856,-8.993977 -1.90306,-13.683589 C 93.168944,19.46726 86.644266,11.968412 77.129112,6.9616283 69.131851,2.7704293 57.328528,0.48226128 47.22434,1.2072253 Z m 11.101014,1.903031 c 2.877201,0.249207 7.0684,1.064791 9.175327,1.744445 l 1.359308,0.453103 -1.699135,-0.135931 c -0.92886,-0.09062 -3.896682,-0.158586 -6.569987,-0.158586 -4.395095,0 -5.029439,0.04531 -6.479367,0.498413 -1.63117,0.521068 -2.809237,1.359308 -2.809237,1.970996 0,0.453103 1.336653,1.132757 3.081098,1.58586 0.724964,0.181241 3.941993,0.815584 7.113711,1.3819617 9.152673,1.653825 12.958734,2.763926 15.496109,4.553682 0.770274,0.521068 1.835065,1.246032 2.378789,1.585859 1.155411,0.702309 2.786581,0.97417 3.307649,0.543723 0.702309,-0.589034 0.249206,-2.469409 -0.974171,-4.055268 l -0.611689,-0.815585 0.906206,0.724964 c 2.197547,1.744445 5.573162,5.618472 7.634778,8.767535 6.88716,10.46667 8.56364,24.195679 4.576337,37.584861 -0.589034,1.970996 -2.831892,7.90664 -2.945167,7.793365 -0.04531,-0.02266 0.543723,-2.809236 1.268687,-6.162196 1.81241,-8.269122 2.333478,-11.690047 1.789755,-12.007219 -0.453102,-0.294516 -1.291342,0.815585 -2.65065,3.466235 -2.60534,5.074749 -5.21068,12.211115 -7.0684,19.415447 -2.763926,10.761187 -4.37244,22.768406 -3.035788,22.768406 0.453103,0 0.88355,-0.79293 1.925686,-3.42093 0.498413,-1.29134 0.860895,-2.10692 0.79293,-1.78975 -1.110102,5.64113 -1.563204,14.567253 -1.042136,20.616173 0.815584,9.42453 3.420924,17.12728 10.55729,31.33204 1.903031,3.82872 3.48889,7.04575 3.48889,7.13637 0,0.2492 -1.835065,-2.56003 -3.670131,-5.61847 -2.242858,-3.76076 -4.938818,-8.65426 -8.69957,-15.79063 -1.699134,-3.21703 -3.035787,-5.68644 -2.967822,-5.5052 0.04531,0.18125 1.427274,4.37244 3.058443,9.28861 3.466235,10.48932 4.576336,14.1368 5.346611,17.94286 0.611688,2.99048 1.042136,6.07158 0.88355,6.34344 -0.249207,0.43044 -10.874463,0 -12.777494,-0.49842 -1.110101,-0.31717 -1.925686,-0.99682 -2.514719,-2.10692 -0.362482,-0.72497 -0.589033,-2.06162 -0.996826,-5.7091 -0.656999,-5.89033 -0.97417,-7.63477 -2.265513,-12.34704 -1.359308,-5.02944 -2.469409,-10.08153 -3.058442,-14.04618 -0.475758,-2.99048 -0.498413,-4.00996 -0.475758,-11.44084 0.06797,-8.90347 0.203896,-10.444023 1.427273,-15.065663 1.472584,-5.59582 3.828717,-12.25643 9.220638,-26.053404 3.851372,-9.900292 4.780232,-12.573597 5.437231,-15.63204 1.67648,-7.748054 1.042136,-16.424969 -1.631169,-22.292648 C 81.365621,25.063077 78.171248,21.846049 73.187119,19.489915 60.319005,13.41834 44.66431,13.803478 31.252473,20.486741 22.145111,25.017767 17.387534,31.315893 15.189986,41.737253 c -0.996825,4.757577 -1.336652,8.405053 -1.200722,12.437666 0.249207,6.751229 1.857721,11.2596 6.026265,16.810107 3.692786,4.916163 7.204331,7.430882 11.871288,8.450363 0.702309,0.158586 1.291342,0.362482 1.291342,0.453103 0,0.589033 -5.210679,1.200722 -7.929295,0.906205 -5.16537,-0.521068 -8.722225,-2.220203 -12.369701,-5.867679 -4.32713,-4.304474 -7.3402623,-9.968257 -8.4956739,-15.903901 -0.4984129,-2.65065 -0.8382398,-7.90664 -0.4984129,-7.90664 0.1359308,0 0.2945167,0.385137 0.3624821,0.88355 0.181241,1.404618 0.8155847,2.56003 1.3819629,2.469409 0.7249642,-0.113276 1.042136,-1.449928 1.1554116,-4.916163 0.1359308,-4.757577 0.8155847,-7.408228 4.0099582,-15.541419 0.92886,-2.378789 1.7671,-4.576337 1.857721,-4.938819 0.362482,-1.495238 -1.472584,-0.113275 -3.0357879,2.310824 -0.4077923,0.634343 -0.7929296,1.155411 -0.8382398,1.155411 -0.1812411,0 2.8092357,-5.709093 4.1458887,-7.883985 5.233335,-8.540984 9.220638,-12.392356 16.51559,-15.9945217 3.941993,-1.948341 6.93247,-3.035787 11.214289,-4.100578 5.9583,-1.449929 12.120495,-1.970997 17.671002,-1.449929 z M 215.93709,148.39761 c 0.77028,-0.72497 1.971,-0.92886 3.12641,-0.52107 0.72496,0.24921 0.99682,0.52107 1.38196,1.314 l 0.47576,0.99682 0.74762,-0.95151 c 0.40779,-0.49842 0.81558,-0.92886 0.9062,-0.92886 0.0906,0 0.27187,0.27186 0.4078,0.58903 0.2492,0.52107 0.20389,0.657 -0.36249,1.22338 -1.67648,1.67648 -5.91298,1.51789 -8.31443,-0.31717 -1.314,-1.01948 -1.29134,-1.69914 0.11328,-2.74127 l 0.79293,-0.58904 0.068,1.24603 0.068,1.22338 z m -21.70361,-0.52107 0.657,1.17807 0.49841,-0.95152 c 0.61169,-1.22338 1.17807,-1.40462 3.71544,-1.33665 l 2.06162,0.068 0.068,1.24604 0.0906,1.24603 1.20072,-1.35931 c 1.20073,-1.33665 1.20073,-1.33665 1.67648,-0.92886 0.67966,0.61169 0.58904,1.22338 -0.31717,2.08427 -2.24286,2.10693 -8.22381,2.24286 -10.62525,0.27186 -0.92886,-0.77027 -1.04214,-1.40461 -0.31718,-2.15223 0.27187,-0.29452 0.52107,-0.52107 0.56638,-0.52107 0.0227,0 0.36248,0.52107 0.72497,1.15541 z m -14.43132,1.58586 c 0.43045,0.52107 0.36248,1.17807 -0.2039,2.31082 -0.61169,1.22338 -0.0226,1.13276 1.33666,-0.22655 1.08744,-1.04213 1.33665,-1.20072 1.20072,-0.74762 -0.67966,2.26551 -4.44041,4.12324 -8.35975,4.12324 -1.33665,-0.0227 -2.37878,-0.13594 -2.96782,-0.36249 -0.88355,-0.36248 -0.88355,-0.36248 -0.15858,-0.29451 0.38513,0.0453 0.72496,0.0453 0.72496,-0.0227 0,-0.0453 -0.24921,-0.38514 -0.56638,-0.77027 -0.95151,-1.13276 -0.97417,-1.74445 -0.11327,-2.46941 1.29134,-1.08745 5.98095,-2.33348 7.92929,-2.12958 0.4531,0.068 0.95152,0.31717 1.17807,0.58903 z m 112.41475,2.83189 c -0.79293,1.20072 -2.46941,1.51789 -3.60216,0.67965 -0.38514,-0.27186 -0.22655,-0.36248 1.49524,-0.77027 2.56003,-0.61169 2.56003,-0.61169 2.10692,0.0906 z m -183.14407,0.0906 c 3.21703,0.38514 3.30765,0.40779 3.60217,1.04214 0.13593,0.33982 0.22655,0.63434 0.20389,0.657 -0.47575,0.36248 -2.96782,1.83506 -3.9873,2.35613 -1.47258,0.74762 -5.82237,2.12958 -10.35339,3.30765 -8.155847,2.10693 -17.421795,3.46623 -27.752535,4.07792 l -2.356133,0.13593 0.407792,-0.4531 c 0.724964,-0.81558 2.582685,-1.85772 4.055268,-2.33348 1.155412,-0.36248 2.446754,-0.47576 7.181677,-0.63434 7.000435,-0.24921 12.936079,-0.90621 17.784277,-1.94834 l 1.585859,-0.36249 3.058445,-3.14906 c 2.96782,-3.0811 3.08109,-3.17172 3.85137,-3.05844 0.43044,0.068 1.65382,0.22655 2.71861,0.36248 z m 124.64853,0.0453 c 0.63434,0.18124 1.08744,0.52107 1.47258,1.13276 l 0.56638,0.86089 0.657,-0.47576 c 0.56638,-0.38513 0.657,-0.40779 0.657,-0.0906 0,0.2039 -0.24921,0.61169 -0.56638,0.90621 -1.01948,1.04214 -3.85137,0.70231 -5.25599,-0.61169 -0.67965,-0.657 -1.1101,-1.54055 -0.74762,-1.54055 0.0906,0 0.29452,0.15859 0.4531,0.33983 0.24921,0.29452 0.33983,0.27186 0.81559,-0.22655 0.58903,-0.657 0.72496,-0.657 1.94834,-0.29452 z m 79.81402,-0.0453 c 0.22655,0.38514 -0.27186,0.83824 -1.35931,1.24603 -0.92886,0.36249 -1.01948,0.36249 -2.03896,-0.0906 -1.54055,-0.67965 -1.1101,-1.1101 1.20072,-1.22337 0.97417,-0.0227 1.81241,-0.0906 1.90303,-0.11328 0.0906,-0.0227 0.22656,0.068 0.29452,0.18124 z m -9.62843,0.81559 c 0,0.38513 -0.54372,1.04213 -1.13276,1.33665 -0.92886,0.47576 -2.17489,0.43045 -2.71861,-0.11328 -0.81559,-0.81558 -0.54372,-1.01948 1.47258,-1.20072 1.69914,-0.15859 2.37879,-0.15859 2.37879,-0.0226 z m -184.09559,1.22337 c 4.28182,1.04214 7.68009,2.28817 12.02988,4.41775 6.45671,3.17172 11.84863,7.0684 17.44445,12.68688 7.92929,7.90664 13.75166,17.10462 18.5319,29.22511 1.69913,4.34979 4.03261,11.53146 4.16854,12.93608 0.22655,2.15224 -0.2039,2.53738 -7.5215,6.66061 -24.60348,13.86494 -52.22008,22.94965 -79.428888,26.14402 -8.087881,0.95152 -14.431318,1.33665 -28.182982,1.74445 -10.240118,0.31717 -11.35022,0.22655 -14.068835,-1.01948 -1.540549,-0.70231 -3.35296,-2.53738 -4.32713,-4.32713 -2.106927,-3.98731 -4.395095,-13.18529 -5.074749,-20.36697 -0.362482,-4.03261 -0.158586,-11.19163 0.475757,-14.86176 2.152238,-12.89077 7.838675,-23.94647 18.19207,-35.29669 3.035787,-3.35296 4.961473,-4.91617 9.243293,-7.61213 l 3.217028,-2.03896 0.407793,0.52107 c 0.249206,0.29451 0.430447,0.67965 0.430447,0.86089 0,0.63435 1.563204,5.07475 2.129582,6.02627 1.223377,2.06161 2.831892,3.0811 5.663783,3.57951 2.129582,0.36248 15.292213,0.13593 19.279515,-0.33983 7.566814,-0.9062 12.800146,-2.37879 18.237376,-5.14271 4.14589,-2.10693 6.4114,-3.71544 7.7254,-5.5052 0.54372,-0.74762 0.657,-1.1101 0.657,-2.24286 0,-1.49524 -0.61169,-2.92251 -2.28817,-5.39192 -0.47576,-0.72496 -0.88355,-1.35931 -0.88355,-1.44993 0,-0.13593 0.0453,-0.13593 3.94199,0.79293 z m 34.95687,-0.0906 c 0.24921,0.31717 0.29452,0.79293 0.2039,1.83507 -0.15859,1.94834 0.15858,1.85772 1.54055,-0.40779 1.04213,-1.74445 1.1101,-1.78976 1.51789,-1.42728 0.61169,0.56638 0.52107,1.44993 -0.24921,2.51472 -2.28817,3.10375 -9.46984,4.75758 -13.54777,3.12641 -1.47258,-0.58903 -2.19754,-1.72179 -1.65382,-2.58269 0.18124,-0.27186 0.40779,-0.15858 1.26869,0.56638 1.78975,1.47259 2.12958,1.72179 2.37879,1.56321 0.13593,-0.0906 0,-0.47576 -0.33983,-0.97417 -1.01948,-1.49524 -0.657,-2.37879 1.42727,-3.44358 2.628,-1.314 6.72858,-1.74445 7.45354,-0.77028 z m 126.68749,0.90621 c -0.79293,0.86089 -1.90303,1.44993 -2.67331,1.44993 -0.2492,0 -0.72496,-0.24921 -1.08744,-0.54373 l -0.63435,-0.54372 1.24603,-0.36248 c 2.46941,-0.67966 2.8319,-0.77028 3.37562,-0.79293 0.54372,-0.0227 0.54372,0 -0.22655,0.79293 z m -63.45702,0.20389 c 1.54055,0.47576 1.94834,0.88355 1.7671,1.88038 l -0.11328,0.79293 0.61169,-0.54372 c 1.314,-1.20073 1.33665,-1.20073 1.74445,-0.43045 0.33982,0.657 0.33982,0.74762 0,1.29134 -0.83824,1.29134 -3.44358,1.85772 -5.98096,1.33665 -1.99365,-0.40779 -3.51154,-1.26868 -4.00996,-2.2202 -0.33982,-0.657 -0.33982,-0.72496 0.068,-1.26869 0.63434,-0.83824 0.83824,-0.83824 1.26869,0.068 0.20389,0.43045 0.4531,0.79293 0.54372,0.79293 0.11328,0 0.33983,-0.33983 0.52107,-0.74762 0.36248,-0.74762 1.13275,-1.29134 1.94834,-1.29134 0.24921,0 0.97417,0.15858 1.63117,0.33982 z m 26.09871,0 c 0,0.27187 0.29451,0.33983 1.38196,0.33983 1.22338,0 1.44993,0.068 2.08427,0.70231 0.58904,0.58903 0.77028,0.67965 1.13276,0.4531 0.36248,-0.2492 0.38514,-0.22655 0.15859,0.18124 -0.56638,1.08745 -1.92569,1.20072 -3.55686,0.29452 -1.99365,-1.08745 -2.17489,-1.29134 -1.83507,-1.83507 0.33983,-0.56637 0.63435,-0.61168 0.63435,-0.13593 z m 50.38501,0.77028 c 0.068,0.11327 -0.27186,0.56638 -0.77028,1.01948 -0.83824,0.77027 -0.99682,0.81558 -2.37879,0.81558 -1.13275,0 -1.47258,-0.068 -1.47258,-0.33982 0,-0.43045 0.49841,-0.67966 2.40144,-1.22338 1.81241,-0.52107 2.06162,-0.54372 2.22021,-0.27186 z m -100.31692,0.52107 c -0.58903,1.44992 -0.657,1.99365 -0.27186,2.56003 0.54372,0.81558 0.88355,0.7023 1.44993,-0.45311 0.29451,-0.61169 0.77027,-1.13275 1.17806,-1.3593 1.74445,-0.90621 4.91617,-0.81559 5.73175,0.13593 0.24921,0.31717 0.38514,0.86089 0.38514,1.60851 0,0.61169 0.0906,1.06479 0.2039,0.99683 0.11327,-0.068 0.58903,-0.79293 1.06479,-1.60852 0.95151,-1.60851 1.24603,-1.72179 1.97099,-0.74762 0.61169,0.81559 0.36249,1.60852 -0.77027,2.44676 -1.92569,1.38196 -5.09741,2.12958 -7.58947,1.78975 -3.01313,-0.40779 -5.52785,-1.90303 -5.52785,-3.23968 0,-0.657 1.42727,-2.40145 1.971,-2.40145 0.18124,0 0.27186,0.13594 0.20389,0.27187 z m 76.05327,1.1101 c 0.45311,0.11327 0.83824,0.31717 0.83824,0.43044 0,0.38514 -1.54055,1.38197 -2.31082,1.49524 -0.79293,0.13593 -2.44675,-0.38513 -2.44675,-0.77027 0,-0.24921 0.9062,-1.08745 1.3593,-1.24603 0.56638,-0.2039 1.65383,-0.18124 2.56003,0.0906 z m -13.25325,0.49841 c 0.56638,-0.13593 2.94517,0.33983 3.12641,0.63434 0.13593,0.22656 -1.42727,0.72497 -2.2202,0.70231 -0.58904,-0.0226 -2.67331,-0.81558 -2.67331,-1.04213 0,-0.0453 0.068,-0.24921 0.13593,-0.45311 0.11328,-0.31717 0.18124,-0.31717 0.61169,-0.0226 0.27186,0.18124 0.70231,0.27186 1.01948,0.18124 z m 42.4104,1.78976 c -5.98095,2.89985 -19.16623,8.99408 -21.63564,9.96825 -2.89986,1.15541 -6.95513,2.31083 -10.17216,2.92251 -3.19437,0.61169 -10.01356,0.83824 -13.20794,0.45311 -4.59899,-0.56638 -9.60577,-1.94834 -14.65787,-4.07793 -2.69596,-1.13275 -5.48254,-1.90303 -9.01674,-2.51472 -9.01674,-1.51789 -19.8912,-1.74444 -29.17981,-0.54372 -7.09105,0.90621 -12.66421,2.17489 -26.16667,6.04892 -4.98413,1.44993 -10.42136,2.94517 -12.09784,3.35296 l -3.01313,0.74762 -0.58904,-0.657 -0.56638,-0.67965 0.77028,-0.2039 c 1.7671,-0.47576 9.33391,-2.94517 15.15628,-4.93882 9.2886,-3.17172 17.39914,-5.07475 26.0534,-6.11688 4.75758,-0.56638 14.40866,-0.67966 19.82324,-0.22655 9.65108,0.81558 15.06566,2.08427 22.88168,5.32395 6.09423,2.53738 11.41819,3.48889 18.23738,3.26234 7.86133,-0.27186 10.03622,-0.97417 30.74301,-9.76436 10.3534,-4.3951 9.83233,-4.16855 10.1495,-4.16855 0.13593,0 -1.44993,0.81559 -3.51155,1.81242 z m -114.47637,-1.13276 c 1.83507,1.26869 1.7671,2.76392 -0.22655,4.6443 -2.12958,2.01631 -5.66378,3.23968 -9.35657,3.28499 -2.62799,0.0227 -4.32713,-0.47575 -5.52785,-1.5632 -0.74762,-0.657 -0.9062,-0.95152 -0.9062,-1.63117 0,-0.81558 0.92886,-2.51472 1.3593,-2.51472 0.13593,0 0.22656,0.47576 0.22656,1.04214 0,1.20072 0.27186,1.78975 0.95151,2.15223 0.52107,0.29452 1.99365,0.67966 1.99365,0.52107 0,-0.0453 -0.2492,-0.4531 -0.56638,-0.9062 -0.31717,-0.4531 -0.56637,-1.01948 -0.56637,-1.24603 0,-0.95152 2.10692,-2.22021 4.93881,-2.94517 3.87403,-0.97417 5.48255,-0.22655 4.66696,2.19755 -0.49841,1.49523 -0.13593,1.63117 1.04214,0.40779 0.99682,-0.99683 1.01948,-1.04214 0.97417,-2.46941 0,-0.81559 0.0453,-1.47258 0.11327,-1.47258 0.068,0 0.47576,0.22655 0.88355,0.49841 z m 44.69857,1.54055 c 0,-0.36248 3.26234,-0.15859 3.7381,0.22655 0.18124,0.13593 0.38514,0.56638 0.4531,0.95151 l 0.15859,0.67966 0.72496,-0.70231 c 0.83824,-0.81559 1.11011,-0.72496 0.77028,0.2039 -0.63435,1.81241 -5.41458,1.20072 -6.59264,-0.83824 -0.52107,-0.92886 -0.27187,-1.49524 0.33982,-0.77028 0.22655,0.29452 0.40779,0.40779 0.40779,0.24921 z m 54.37232,-0.49842 c 0,0.31718 -1.22338,1.35931 -1.88038,1.60852 -0.36248,0.13593 -0.88355,0.24921 -1.20072,0.24921 -0.74762,0 -2.01631,-0.657 -1.7671,-0.90621 0.20389,-0.2039 3.69278,-1.06479 4.46306,-1.1101 0.2039,-0.0227 0.38514,0.068 0.38514,0.15858 z m -41.32296,2.4241 c 0.15859,0.67966 0.068,0.657 1.08745,0.22656 0.4531,-0.2039 1.06479,-0.29452 1.38196,-0.2039 0.61169,0.15858 1.92568,1.51789 1.92568,1.99365 0,1.13276 -4.6443,0.13593 -5.12005,-1.1101 -0.18125,-0.4531 0.0906,-1.47258 0.36248,-1.47258 0.11327,0 0.27186,0.2492 0.36248,0.56637 z m 29.99539,0.58904 c 0.38514,0.70231 0.11328,1.08744 -1.26869,1.72179 -1.47258,0.657 -3.17171,0.657 -3.94199,-0.0453 -0.61169,-0.54373 -0.58903,-0.67966 0.31717,-1.22338 0.58904,-0.38514 1.13276,-0.47576 2.49207,-0.47576 0.99682,0 1.72179,-0.0906 1.72179,-0.22655 0,-0.38514 0.43045,-0.24921 0.67965,0.24921 z m -24.87533,0.92886 -0.49841,0.49841 v -0.47576 c 0,-0.27186 0.068,-0.657 0.13593,-0.86089 0.13593,-0.33983 0.18124,-0.33983 0.52106,-0.0227 0.31718,0.33983 0.29452,0.40779 -0.15858,0.8609 z m 7.70274,-0.45311 c -0.54372,0.54373 -0.31717,0.88355 0.52107,0.72497 0.58903,-0.11328 0.99683,-0.0227 1.60852,0.33983 1.08744,0.65699 1.38196,0.38513 0.63434,-0.58904 -0.31717,-0.43044 -0.52107,-0.83824 -0.4531,-0.92886 0.15858,-0.13593 1.94834,1.5179 1.94834,1.78976 0,0.31717 -2.26552,1.1101 -3.17172,1.1101 -0.77028,0 -1.08745,-0.13593 -1.72179,-0.77028 -0.43045,-0.43044 -0.77028,-0.88355 -0.77028,-0.99682 0,-0.13593 0.33983,-0.43045 0.72497,-0.67966 0.74762,-0.47575 1.15541,-0.47575 0.67965,0 z m -99.1615,3.62483 c 0.77027,0.33982 0.95151,1.17806 0.49841,2.42409 -0.20389,0.58904 -0.27186,1.15542 -0.18124,1.33666 0.13593,0.2492 0.56638,-0.13593 1.63117,-1.54055 l 1.42727,-1.85772 0.4078,0.49841 c 0.22655,0.27186 0.40779,0.657 0.40779,0.83824 0,0.88355 -1.20072,2.31082 -2.69596,3.19437 l -0.79293,0.47576 -2.33348,-2.46941 c -1.29134,-1.35931 -2.37879,-2.56003 -2.40144,-2.65065 -0.11328,-0.4531 3.1264,-0.657 4.03261,-0.2492 z m 28.52281,56.04879 c 2.15224,0.74762 4.28182,3.57951 4.59899,6.13954 0.29452,2.53737 -1.29134,6.09423 -3.9873,8.94877 -6.3661,6.77389 -16.3117,12.59626 -28.90795,16.94604 -6.13954,2.10693 -38.08327,10.73853 -43.15802,11.66739 -17.761622,3.19438 -36.542725,4.05527 -53.91921,2.46941 -4.848198,-0.43045 -12.732183,-1.5632 -15.065661,-2.15224 -2.786581,-0.7023 -10.036223,-3.1264 -11.531461,-3.87402 -1.789756,-0.90621 -3.375615,-2.4241 -3.987303,-3.85137 -1.087446,-2.53738 -0.09062,-6.32079 2.220203,-8.33709 0.996825,-0.88355 2.492064,-1.81241 2.922511,-1.81241 0.113276,0 0.521068,0.67965 0.928861,1.49524 1.72179,3.46623 6.819194,7.22698 11.576771,8.51832 2.333478,0.657 7.430883,0.70231 10.217464,0.11328 2.65065,-0.56638 6.615298,-1.90303 9.787016,-3.3303 l 2.673305,-1.17807 1.517894,1.40462 c 2.922512,2.74127 6.502022,4.73492 10.489325,5.84502 1.993652,0.56638 2.469409,0.61169 6.456712,0.58903 3.919338,0 4.508371,-0.068 6.456712,-0.61168 5.573162,-1.5179 10.444011,-4.37244 15.518761,-9.0394 l 1.56321,-1.47258 1.49523,0.86089 c 7.22699,4.16854 16.13046,4.68961 23.24417,1.33665 5.48254,-2.56003 9.24329,-6.18485 13.34387,-12.84546 0.0226,-0.0453 0.79293,0.0906 1.72179,0.27187 0.92886,0.18124 3.14906,0.40779 4.96147,0.47575 6.56999,0.29452 12.07519,-1.13275 16.94604,-4.37244 4.34978,-2.8772 7.92929,-7.61212 9.56046,-12.64156 0.27187,-0.88355 0.56638,-1.65382 0.61169,-1.7671 0.13593,-0.24921 0.54373,-0.2039 1.74445,0.2039 z"
       id="path134"
       style="fill:none;stroke:#ff0000;stroke-width:0.1;stroke-opacity:1;stroke-dasharray:none" />
    <path
       d="m 6.3771405,59.43091 c -0.2945167,1.7671 0.702309,5.663782 1.6764796,6.547332 0.9968257,0.906205 1.7671002,-0.656999 1.3366527,-2.718616 C 9.0957561,61.855008 7.3966214,58.751256 6.8755534,58.63798 6.6036918,58.59267 6.467761,58.796566 6.3771405,59.43091 Z"
       id="path136"
       style="fill:none;stroke:#ff0000;stroke-width:0.1;stroke-opacity:1;stroke-dasharray:none" />
    <path
       d="m 122.75654,157.93542 -0.9062,0.56638 1.08744,3.21702 c 3.37562,9.87764 4.91617,20.63883 4.30448,30.15398 -0.43045,6.4114 -1.33666,11.93926 -2.99048,18.21473 -0.72496,2.69596 -0.74762,2.76392 -1.44993,2.92251 -1.15541,0.22655 -2.12958,0.97417 -2.76392,2.03896 -0.52107,0.8609 -0.58904,1.20072 -0.49842,2.44675 0.068,1.13276 0.22655,1.60852 0.70231,2.24286 l 0.61169,0.79293 -1.29134,3.14907 c -0.72497,1.72178 -2.28817,5.14271 -3.51155,7.61212 -1.22337,2.46941 -2.2202,4.53102 -2.2202,4.59899 0,0.15859 0.72496,-0.0453 9.17533,-2.53737 11.75801,-3.46624 12.12049,-3.60217 24.30895,-9.01675 6.29813,-2.80923 10.42136,-4.8935 15.38284,-7.79336 1.90303,-1.1101 2.62799,-1.67648 2.96782,-2.28817 0.92886,-1.65382 0.88355,-2.08427 -0.70231,-6.13954 -3.91934,-9.99091 -9.56047,-22.81372 -10.91977,-24.83002 -1.13276,-1.65383 -2.24286,-2.19755 -4.14589,-2.08427 -0.83824,0.068 -1.67648,0.18124 -1.90303,0.27186 -0.47576,0.22655 -0.56638,-0.068 -0.8609,-3.14907 -0.4531,-4.57633 -0.43045,-4.55368 -6.34344,-8.97143 -3.82871,-2.85454 -16.37965,-11.7127 -16.83276,-11.87128 -0.13593,-0.0453 -0.67965,0.15858 -1.20072,0.4531 z"
       id="path138"
       style="fill:none;stroke:#ff0000;stroke-width:0.1;stroke-opacity:1;stroke-dasharray:none" />
    <path
       d="m 102.16303,219.19489 c -2.492064,0.61169 -3.874027,2.80924 -3.262338,5.3013 0.906205,3.76075 6.162188,4.41775 7.951948,0.99683 0.657,-1.26869 0.657,-2.89986 0,-4.16855 -0.79293,-1.54055 -2.99048,-2.53737 -4.68961,-2.12958 z"
       id="path140"
       style="fill:none;stroke:#ff0000;stroke-width:0.1;stroke-opacity:1;stroke-dasharray:none" />
    <path
       d="m 79.961003,224.51884 c -0.362482,0.15859 -1.019481,0.63435 -1.404618,1.04214 -2.65065,2.71862 -0.656999,7.24964 3.194373,7.24964 2.469409,0 4.213854,-1.81241 4.213854,-4.37244 0,-2.99047 -3.262338,-5.12006 -6.003609,-3.91934 z"
       id="path142"
       style="fill:none;stroke:#ff0000;stroke-width:0.1;stroke-opacity:1;stroke-dasharray:none" />
    <path
       d="m 59.4128,227.12418 c -2.65065,0.8609 -3.828717,3.942 -2.401444,6.3661 1.63117,2.78658 5.845024,2.76392 7.430883,-0.0453 1.540549,-2.71862 -0.226551,-6.13954 -3.284994,-6.41141 -0.634344,-0.0453 -1.404618,0 -1.744445,0.0906 z"
       id="path144"
       style="fill:none;stroke:#ff0000;stroke-width:0.1;stroke-opacity:1;stroke-dasharray:none" />
    <path
       d="m 40.767628,228.66473 c -1.585859,0.83824 -2.378789,2.15224 -2.378789,3.91934 0,2.33348 1.608515,4.05527 3.941993,4.25917 3.556855,0.29451 5.890334,-3.76076 3.896682,-6.77389 -1.042136,-1.58586 -3.806061,-2.28817 -5.459886,-1.40462 z"
       id="path146"
       style="fill:none;stroke:#ff0000;stroke-width:0.1;stroke-opacity:1;stroke-dasharray:none" />
    <path
       d="m 95.466629,285.60584 c 0.998122,1.65692 3.135811,4.35864 6.629921,8.45127 1.20663,1.44768 2.44793,3.0501 2.74861,3.56316 l 0.52022,0.97462 1.4099,-0.33908 c 0.77374,-0.17337 3.47309,-0.87105 6.01272,-1.55622 6.29517,-1.64272 10.27782,-2.00112 18.78313,-1.65488 5.43594,0.22143 8.17297,0.003 17.23564,-1.30812 12.04748,-1.7708 21.61209,-2.70666 26.89786,-2.63732 1.06645,-0.007 1.96825,-0.0231 1.98541,-0.0502 0.43343,-0.86326 0.33669,-13.93591 -0.0963,-14.21037 -0.032,-0.0393 -1.26542,0.0514 -2.70275,0.16448 -1.43731,0.11311 -2.94591,0.21897 -3.30952,0.254 l -0.71009,0.043 -0.26134,-1.89167 c -0.13945,-1.03673 -0.21558,-2.41269 -0.13816,-3.10332 l 0.12322,-1.21167 4.06767,-0.91144 c 4.77511,-1.06995 4.61577,-0.84852 2.59624,-3.43742 -1.84462,-2.32626 -2.90255,-4.45735 -3.75345,-7.63313 -0.82118,-3.04314 -0.65386,-2.91812 -2.78759,-1.97567 -4.17179,1.79379 -22.12319,8.30036 -29.24778,10.59328 -1.97211,0.62762 -8.23525,2.30961 -13.90913,3.72025 -11.92253,2.95008 -15.83015,4.05783 -20.3118,5.7121 -3.53371,1.3258 -9.684498,4.02735 -11.623855,5.11198 -1.504831,0.84797 -1.511709,1.12811 -0.158771,3.33238 z m 37.260621,-3.8449 c 7.2953,-1.63465 13.04502,-3.22481 17.97874,-4.93395 1.35806,-0.46682 2.50496,-0.83989 2.55907,-0.80559 0.18944,0.12008 0.16945,2.72486 -0.0254,3.72041 l -0.22418,1.07177 -2.18629,0.39703 c -1.20865,0.20114 -4.19079,0.77651 -6.63741,1.25508 -6.49487,1.26956 -11.96895,1.70676 -16.72948,1.28758 -1.18957,-0.12815 -2.1874,-0.22956 -2.19235,-0.25171 2.96854,-0.71506 5.02446,-1.18162 7.4573,-1.74062 z"
       id="path148"
       style="fill:none;stroke:#ff0000;stroke-width:0.1;stroke-dasharray:none;stroke-opacity:1"
       sodipodi:nodetypes="sccccccccccscccccscccccccssccsccccccc" />
    <path
       d="m 86.076013,292.76023 c -0.54701,-2.07119 -1.5283,-4.50594 -3.46301,-8.62527 -0.99824,-2.11803 -2.02357,-4.57783 -2.27163,-5.45324 -0.24925,-0.85279 -0.59507,-1.59732 -0.77362,-1.65226 -0.15716,-0.0311 -2.33499,-0.0343 -4.83197,-0.009 -6.92658,0.12815 -11.6507,-0.62399 -19.436973,-3.08289 -6.6709,-2.10423 -8.419714,-2.49284 -16.145383,-3.54186 -8.987688,-1.20736 -10.180636,-1.38468 -15.060694,-2.19055 -5.938463,-0.95332 -11.705255,-2.14699 -14.0931597,-2.88744 -0.9368287,-0.29974 -1.7415581,-0.52434 -1.7665901,-0.48031 -0.04765,0.0428 -0.5037452,1.35697 -1.0410032,2.91633 -1.245417,3.7675 -3.00949,10.86498 -2.692763,10.88194 0.04521,0.003 1.550042,0.28725 3.323906,0.63184 1.7738723,0.34459 3.233352,0.62739 3.256065,0.62808 0.158391,0.008 -0.603887,4.07412 -0.944055,4.91801 l -0.4463827,1.13317 -4.1625813,-0.22291 -4.162581,-0.22292 -0.02339,0.86089 c -0.05501,1.44906 0.314064,13.19832 0.3985,13.31627 0.06541,0.0488 2.981739,-0.18061 6.4947172,-0.53697 8.0298408,-0.81775 19.1888678,-1.60405 26.8753378,-1.94107 4.594013,-0.2077 8.336457,-0.18876 16.671307,0.0761 5.911796,0.18049 12.234439,0.31494 14.050309,0.29875 5.76676,-0.0768 11.60665,-0.67155 17.17666,-1.73449 3.8503,-0.72398 3.73112,-0.61693 3.06897,-3.07997 z m -33.85332,-6.71369 c -5.780503,-0.51382 -19.95726,-0.56975 -23.840689,-0.0744 l -0.776433,0.0945 0.21726,-1.10013 c 0.123186,-0.60597 0.474248,-1.65348 0.780854,-2.295 l 0.54173,-1.2188 4.522108,0.28755 c 8.251238,0.55537 13.627773,1.41052 18.671435,2.97383 2.990251,0.93153 4.124621,1.35528 4.112509,1.58152 -0.0032,0.068 -1.903943,-0.0339 -4.22923,-0.24921 z"
       id="path150"
       style="fill:none;stroke:#ff0000;stroke-width:0.1;stroke-opacity:1;stroke-dasharray:none" />
    <path
       d="m 121.77975,188.20366 c -0.77419,-3.76302 -1.95921,-6.01593 -4.62568,-8.82005 -2.92943,-3.09184 -6.1503,-5.00746 -9.29265,-5.51773 -3.70117,-0.6025 -10.301872,1.42738 -16.062796,4.93035 -5.206037,3.18488 -11.12721,8.76101 -14.753493,13.87728 -5.850604,8.23752 -8.293372,10.4952 -11.959495,10.9382 -3.396215,0.41037 -5.714722,-1.59147 -5.885843,-5.08506 -0.04322,-1.11295 0.03392,-1.41893 0.624421,-2.19771 1.279857,-1.68358 4.323143,-2.37079 8.958088,-1.97241 0.991589,0.0856 1.817601,0.12267 1.857147,0.0723 0.01693,-0.0476 -0.843622,-3.96001 -1.945239,-8.73318 l -1.982074,-8.66027 -2.158437,0.0783 c -4.38163,0.18714 -9.537914,1.51762 -12.59385,3.23325 -2.81941,1.59578 -6.260511,5.41175 -8.070616,8.93936 -1.96285,3.77427 -2.590547,7.45566 -2.066777,11.97917 0.404945,3.35125 0.948871,5.01983 2.478672,7.48209 1.451451,2.38045 3.213848,4.31257 5.896909,6.49855 3.548323,2.92578 7.007232,4.35623 12.020315,5.05121 2.715765,0.37923 8.50621,-0.0466 11.648361,-0.85983 8.166209,-2.10492 16.844183,-7.7175 20.153623,-13.00087 1.490722,-2.39367 5.688948,-7.87569 7.351164,-9.60547 4.01304,-4.18175 8.45335,-6.3385 10.73605,-5.1995 0.90014,0.46172 1.49672,1.62193 1.29055,2.55964 -0.35574,1.77729 -1.92772,2.74313 -7.62331,4.70926 l -4.33647,1.50526 0.0219,1.50346 c 0.0303,0.81785 0.29717,3.59245 0.60971,6.17898 0.52995,4.38585 0.58511,4.65301 0.98991,4.60411 2.29414,-0.27721 10.63485,-2.44887 12.63611,-3.26119 2.60387,-1.11333 4.2839,-3.07347 5.39872,-6.31169 1.61564,-4.75921 1.84299,-9.48758 0.68505,-14.91572 z"
       id="path152"
       style="fill:none;stroke:#ff0000;stroke-width:0.1;stroke-opacity:1;stroke-dasharray:none" />
    <path
       d="m 35.291399,26.947446 c -2.361205,0.82257 -4.627415,1.831152 -4.975887,2.202307 -0.201457,0.216036 0.04616,1.532673 1.205557,6.63843 2.300942,10.052313 3.975285,14.977803 6.521271,19.022107 3.042158,4.87525 5.296481,9.510006 6.533962,13.472156 0.728358,2.268611 0.909373,3.508898 2.214494,14.053331 l 1.407352,11.57109 1.343054,4.098623 c 0.744604,2.24099 1.465668,4.30086 1.59967,4.54697 0.178643,0.32818 0.498666,0.47927 1.102968,0.46308 2.263671,-0.025 2.203569,0.014 3.867191,-2.0554 2.370341,-2.95467 4.662599,-4.765717 7.848278,-6.199831 l 1.428759,-0.627715 -1.857675,-7.709824 c -1.031112,-4.249658 -1.950228,-8.247506 -2.027329,-8.90622 l -0.125747,-1.207809 2.416669,-3.317725 c 5.408476,-7.486602 8.224893,-12.241934 8.768503,-14.840195 0.268958,-1.310095 -0.04708,-9.302421 -0.548622,-13.94678 -0.382238,-3.551897 -1.747182,-8.276733 -4.360303,-15.018445 -1.820597,-4.676958 -2.654643,-5.818213 -4.69408,-6.553459 -2.391934,-0.831121 -5.881247,-0.839559 -10.93498,-0.02129 -2.897263,0.47002 -13.840636,3.306142 -16.733066,4.336596 z m 19.037396,13.133776 c 2.227794,1.552366 3.609945,4.447259 5.377551,11.267682 1.500467,5.789671 1.558052,6.734294 0.501995,8.52923 -0.617384,1.049335 -1.810649,2.224523 -2.086787,2.06205 -0.690356,-0.406173 -8.818089,-20.931038 -8.493137,-21.483326 0.205518,-0.380913 2.341747,-1.168581 3.056503,-1.119783 0.357377,0.0244 1.096473,0.347731 1.643875,0.744147 z"
       id="path154"
       style="fill:none;stroke:#ff0000;stroke-width:0.1;stroke-opacity:1;stroke-dasharray:none" />
    <path
       d="m 230.90798,295.2199 c 4.43054,0.0489 11.33144,-0.32142 11.72233,-0.62817 0.0981,-0.0824 0.69787,-5.6015 1.30859,-12.2796 l 1.1572,-12.11096 -1.78357,-0.40717 c -0.97907,-0.24542 -2.66641,-0.71237 -3.7484,-1.08054 l -1.96679,-0.65076 0.0583,-4.02035 c 0.0486,-2.36095 -0.0668,-5.44139 -0.27526,-7.46114 -1.26355,-12.2559 -1.34585,-15.97022 -0.5967,-30.9372 l 0.21829,-4.02902 -0.95977,0.052 c -0.50246,0.0241 -2.01775,0.18621 -3.32605,0.32079 -4.54589,0.48674 -8.46816,-0.42716 -10.53943,-2.47441 -0.794,-0.79769 -2.69923,-2.14805 -3.08287,-2.18183 -0.18058,-0.0159 -0.71315,8.87513 -0.87805,14.36436 -0.0712,2.35899 0.13647,9.04089 0.53097,17.21753 0.35314,7.35429 0.58867,13.72025 0.48125,14.16564 -0.48807,2.18583 -1.28056,2.66188 -5.06781,3.05622 -3.32797,0.34379 -12.31037,0.84928 -13.37106,0.7559 -0.83501,-0.0735 -0.80049,-0.20701 -0.71868,4.03044 0.1512,6.2903 0.91588,13.36242 2.02725,18.30445 0.34282,1.53122 0.51016,1.95531 0.90844,2.08135 1.81479,0.56915 2.837,0.84109 5.72244,1.3908 7.21984,1.43168 16.20457,2.45007 22.17964,2.52132 z"
       id="path156"
       style="fill:none;stroke:#ff0000;stroke-width:0.1;stroke-dasharray:none;stroke-opacity:1" />
    <path
       d="m 179.97259,140.97344 c -0.10335,-0.85737 -0.82165,-6.14358 -1.60703,-11.76293 -1.67397,-11.98055 -1.74092,-12.19816 -4.92313,-19.27593 -2.0011,-4.42692 -4.19027,-9.90214 -4.14202,-10.350957 0.0309,-0.191087 8.97181,13.676497 10.32131,16.016097 1.52319,2.62815 3.51249,8.14364 4.24623,11.78591 0.59952,2.976 3.07039,9.73486 3.94279,10.85328 l 0.46288,0.57695 5.78743,-1.32765 c 3.1802,-0.73308 5.84511,-1.3855 5.92053,-1.47002 0.10209,-0.0668 -0.67687,-4.27771 -1.69695,-9.34135 l -1.8612,-9.23893 -1.9003,-5.41786 c -3.45722,-9.93426 -3.35001,-9.51677 -5.48626,-24.824492 -1.03224,-7.418446 -1.95217,-13.935095 -2.03285,-14.450378 l -0.1302,-0.990627 -3.76819,-0.350179 c -2.07518,-0.205928 -4.83917,-0.504198 -6.15014,-0.702303 -1.3065,-0.175902 -2.39075,-0.281019 -2.42622,-0.227653 -0.15962,0.240141 2.66148,19.176892 3.47592,23.334442 l 0.91729,4.668369 -1.04672,-1.869059 c -1.39409,-2.44618 -3.08841,-6.7269 -4.38282,-10.972642 -3.3521,-11.01851 -6.42455,-19.0428 -7.58534,-19.872023 -0.10671,-0.07092 -0.93326,-0.15865 -1.813,-0.166306 -2.08381,-0.01931 -9.34344,0.195198 -9.39665,0.275252 -0.0709,0.106708 0.62775,10.458041 0.96189,14.296366 0.55546,6.428304 1.25071,11.141393 2.33725,16.076103 0.9881,4.4461 1.09965,4.77028 2.76201,8.43347 2.21058,4.89314 3.49044,8.26363 4.52616,11.79885 l 0.82592,2.83794 0.23112,6.42432 c 0.26723,6.83303 0.59004,12.10646 0.91858,15.11395 l 0.23362,1.84798 0.88868,0.0521 c 3.41699,0.21294 9.82374,0.12403 11.17848,-0.14889 0.55523,-0.11185 0.58622,-0.18746 0.41093,-1.63117 z"
       id="path158"
       style="fill:none;stroke:#ff0000;stroke-width:0.1;stroke-opacity:1;stroke-dasharray:none" />
    <path
       d="m 11.062254,185.07671 c -2.1522402,0.27186 -3.1717202,0.58903 -3.1717202,0.95152 0,0.20389 0.13593,3.64747 0.31717,7.63477 0.38514,8.45037 0.33983,25.87216 -0.068,28.93061 -0.13593,1.08744 -0.7023,3.82871 -1.26868,6.09423 -2.4241,9.78701 -2.56003,11.21428 -1.69914,16.06248 1.17807,6.59265 1.60852,9.87764 1.74445,13.07201 l 0.13593,3.44358 0.81558,0.29452 c 1.26869,0.4531 11.6900502,0.40779 12.5962602,-0.0453 l 0.67965,-0.36248 -0.0453,-3.82872 c -0.0227,-3.35296 -0.15859,-4.55368 -0.97417,-9.40188 -1.47259,-8.69957 -1.44993,-10.17215 0.29451,-16.7648 0.67966,-2.60534 1.22338,-7.20433 1.5179,-13.13997 0.29452,-5.61847 0.29452,-22.83637 0,-26.39323 -0.38514,-4.87085 -0.4531,-5.3013 -0.92886,-5.57316 -1.22338,-0.63434 -7.58947,-1.26869 -9.9456,-0.97417 z"
       id="path160"
       style="fill:none;stroke:#ff0000;stroke-width:0.1;stroke-opacity:1;stroke-dasharray:none" />
    <path
       d="m 67.197124,150.00234 c -0.0552,-0.14865 -1.02338,-1.84323 -2.14994,-3.76894 l -2.07648,-3.50623 -0.30021,-2.49868 c -0.51721,-4.44825 -1.6401,-9.42066 -2.90284,-12.81841 l -0.62349,-1.67764 -1.08605,0.52446 c -1.43672,0.75147 -5.48604,2.66725 -5.91078,2.8251 -0.23358,0.0868 -0.39787,0.94543 -0.50372,2.67661 -0.56145,8.76452 -0.0158,16.15081 1.52034,21.25966 l 0.6697,2.19219 6.73971,-2.48059 c 5.03293,-1.87045 6.69479,-2.53641 6.62376,-2.72753 z"
       id="path162"
       style="fill:none;stroke:#ff0000;stroke-width:0.1;stroke-opacity:1;stroke-dasharray:none" />
    <path
       d="m 135.15506,150.33997 c -0.14652,-1.48803 2.61134,-52.797767 2.95493,-54.857632 0.10942,-0.739227 0.68757,1.434785 2.11769,8.100642 1.60906,7.55883 2.3619,11.96936 4.27814,24.96145 0.96813,6.5975 1.79605,12.00227 1.84557,12.04293 0.0248,0.0204 1.75826,0.0546 3.87503,0.0511 3.21007,0.003 3.9992,-0.075 5.07954,-0.43165 l 1.30123,-0.42449 0.002,-1.59377 c 0.004,-0.88817 0.0841,-1.92049 0.20423,-2.31931 0.44637,-1.47812 2.65359,-3.1068 4.4957,-3.35639 0.65161,-0.0871 0.97871,-0.23296 0.95654,-0.45841 -0.1509,-1.53314 -4.53953,-20.67872 -5.80135,-25.40338 -1.06697,-3.90155 -1.85485,-7.511876 -2.82066,-12.698204 l -0.72651,-3.912281 -0.51421,-17.250498 c -0.45422,-15.253114 -0.539,-17.270824 -0.86573,-17.352486 -1.21902,-0.358064 -16.2858,0.601335 -16.67202,1.071925 -0.0632,0.05184 -0.069,2.306014 -0.0348,4.966113 0.10701,8.025377 0.0656,12.923839 -0.0923,12.939369 -0.33819,0.03328 -4.65053,-11.630251 -6.39327,-17.309223 l -0.94198,-3.094327 -2.75471,-0.002 c -3.46031,-8.74e-4 -14.98886,0.132259 -15.04983,0.206546 -0.14229,0.173367 9.29015,25.925041 11.29563,30.804147 1.37887,3.370026 2.53744,6.35198 2.56186,6.599987 0.0245,0.248001 -0.19717,2.159287 -0.47096,4.235044 -2.1885,15.695368 -5.96774,48.302038 -5.80352,49.970458 0.0216,0.22555 0.32604,0.53701 0.68198,0.6841 2.77106,1.09312 17.33769,4.3033 17.29108,3.82983 z"
       id="path164"
       style="fill:none;stroke:#ff0000;stroke-width:0.1;stroke-opacity:1;stroke-dasharray:none" />
    <path
       d="m 16.700506,88.802699 c -11.2596003,5.43723 -10.0362203,4.66695 -11.1463203,6.90981 -4.25917,8.608951 -4.23651,23.629301 0.068,42.365091 0.63435,2.76393 0.90621,4.62165 1.24603,8.8355 1.15542,14.72584 2.67331,22.47389 5.0974103,26.32527 2.60534,4.12323 8.42771,7.09105 14.47663,7.36291 2.8772,0.13593 5.00678,-0.29451 7.47619,-1.51789 6.16219,-3.05844 9.67374,-9.80967 11.41818,-22.08875 1.22338,-8.47302 1.35931,-12.75484 0.83824,-23.78789 l -0.31717,-6.56999 1.1101,-9.2886 c 1.08745,-9.13002 1.38197,-14.00087 0.97417,-16.47028 l -0.13593,-0.81558 -1.20072,0.11327 c -0.77027,0.0906 -1.5632,0 -2.28817,-0.226551 -0.70231,-0.22655 -2.40144,-0.43045 -4.62164,-0.52107 -3.71544,-0.15858 -4.93882,-0.4531 -6.07158,-1.51789 -1.78975,-1.65383 -1.94834,-4.41775 -0.36248,-5.82237 0.79293,-0.67965 2.83189,-1.42727 4.68961,-1.69913 1.06479,-0.15859 3.33031,-1.35931 3.48889,-1.83507 0.0906,-0.29452 -2.44675,-1.40462 -4.46306,-1.99365 -2.35613,-0.67966 -5.70909,-1.04214 -9.62843,-1.04214 h -3.87403 z m 10.46667,11.440841 c 1.81241,1.08744 2.31082,4.4404 1.51789,9.78701 -0.33982,2.12959 -0.43044,4.03262 -0.43044,7.99726 0.0226,5.5052 0.068,5.9583 1.44992,12.50564 0.95152,4.59899 1.40462,8.51832 1.58586,14.22742 0.31718,10.30808 -0.52106,14.61256 -2.96782,15.20159 -0.81558,0.18124 -1.83506,-0.81559 -2.26551,-2.19755 -0.33983,-1.13275 -0.36248,-6.70592 -0.0227,-8.92612 0.13593,-0.95151 0.068,-3.01313 -0.20389,-6.79654 -0.40779,-5.21068 -0.47576,-5.64113 -1.65383,-10.19481 -1.3593,-5.23333 -2.76392,-11.28225 -3.55685,-15.29221 -0.70231,-3.55686 -0.70231,-7.65743 0,-10.51198 1.06479,-4.25916 2.58268,-6.252821 4.78023,-6.252821 0.63434,0 1.33665,0.18125 1.7671,0.453111 z"
       id="path166"
       style="fill:none;stroke:#ff0000;stroke-width:0.1;stroke-opacity:1;stroke-dasharray:none" />
    <path
       d="m 191.91705,19.170416 c -1.57382,-2.104618 -3.14906,-3.433657 -5.4089,-4.570696 -8.77751,-4.448435 -21.90461,-5.7203574 -40.44125,-3.919603 -3.64831,0.362639 -5.43518,0.422926 -8.47372,0.265205 -10.67852,-0.56865 -19.08745,-0.272898 -23.89785,0.840727 -3.94313,0.920629 -6.76462,2.956395 -9.0383,6.517852 -5.459008,8.451405 -4.31183,17.372754 2.89259,22.956565 3.84343,2.969047 8.83991,5.071927 17.01158,7.143534 6.91096,1.73843 10.6992,2.30516 19.8581,2.988846 l 8.34371,0.631918 9.42334,2.289608 c 8.87171,2.132427 9.65098,2.29398 13.15384,2.575633 3.27523,0.277276 4.61857,0.300893 6.51693,0.07139 0.48584,-0.05602 0.49121,-0.101016 0.3466,-1.373185 -0.0714,-0.738661 -0.10925,-2.52285 -0.0722,-3.978665 0.13378,-5.893424 2.23779,-12.235937 7.22483,-21.702026 1.2099,-2.296775 2.58874,-5.052507 3.06055,-6.136935 0.44665,-1.064625 0.88791,-2.084265 0.95171,-2.236357 0.0863,-0.149405 -0.56295,-1.208089 -1.45159,-2.363815 z m -10.7351,17.472268 c -1.23636,1.563497 -4.79031,1.709248 -9.51556,0.391693 -3.19996,-0.907141 -10.30942,-1.939158 -13.31909,-1.956529 -1.27854,0.0069 -4.28722,0.172214 -6.68317,0.365074 -7.1905,0.601063 -9.64684,0.535719 -17.97273,-0.43631 -6.38861,-0.763368 -7.4855,-0.940055 -8.72471,-1.45319 -1.78277,-0.737804 -2.84132,-1.617221 -3.11354,-2.585216 -0.19467,-0.662114 -0.15606,-0.794399 0.31336,-1.285909 1.30752,-1.395263 4.12012,-1.447077 9.83685,-0.216402 2.29011,0.501799 3.55253,0.629837 8.00189,0.81923 5.26455,0.241174 5.31223,0.224063 12.47289,-0.699998 12.97625,-1.66658 17.72412,-1.875026 21.08156,-0.949073 4.35358,1.181907 7.113,2.720851 7.98213,4.421845 0.55658,1.070415 0.39361,2.62527 -0.35986,3.584781 z"
       id="path168"
       style="fill:none;stroke:#ff0000;stroke-width:0.1;stroke-opacity:1;stroke-dasharray:none" />
    <g
       id="g22804">
      <path
         style="fill:none;fill-opacity:0;stroke:#ff0000;stroke-width:0.0999937;stroke-linecap:round;stroke-dasharray:none;stroke-opacity:1;paint-order:fill markers stroke"
         d="M 206.81311,141.377 V 0.05"
         id="path22718" />
      <path
         style="fill:none;fill-opacity:0;stroke:#ff0000;stroke-width:0.0999923;stroke-linecap:round;stroke-dasharray:none;stroke-opacity:1;paint-order:fill markers stroke"
         d="M 206.81311,141.377 H 331.52799"
         id="path22720" />
      <path
         style="fill:none;fill-opacity:0;stroke:#ff0000;stroke-width:0.1;stroke-linecap:round;stroke-dasharray:none;stroke-opacity:1;paint-order:fill markers stroke"
         d="M 246.3464,299.94899 V 183.59742"
         id="path22753" />
      <path
         style="fill:none;fill-opacity:0;stroke:#ff0000;stroke-width:0.1;stroke-linecap:round;stroke-dasharray:none;stroke-opacity:1;paint-order:fill markers stroke"
         d="m 246.34691,183.57998 h 85.18248"
         id="path22755" />
      <path
         style="fill:none;fill-opacity:0;stroke:#ff0000;stroke-width:0.1;stroke-linecap:round;stroke-dasharray:none;stroke-opacity:1;paint-order:fill markers stroke"
         d="M 331.52939,183.57998 V 141.39471"
         id="path22793" />
    </g>
  </g>
</svg>
